<?xml version="1.0" encoding="UTF-8" standalone="no"?>
<svg
   xmlns:dc="http://purl.org/dc/elements/1.1/"
   xmlns:cc="http://creativecommons.org/ns#"
   xmlns:rdf="http://www.w3.org/1999/02/22-rdf-syntax-ns#"
   xmlns:svg="http://www.w3.org/2000/svg"
   xmlns="http://www.w3.org/2000/svg"
   xmlns:sodipodi="http://sodipodi.sourceforge.net/DTD/sodipodi-0.dtd"
   xmlns:inkscape="http://www.inkscape.org/namespaces/inkscape"
   version="1.1"
   width="800"
   height="800"
   id="svg146"
   sodipodi:docname="desmos-graph.svg"
   inkscape:version="1.0.1 (3bc2e813f5, 2020-09-07)">
  <metadata
     id="metadata150">
    <rdf:RDF>
      <cc:Work
         rdf:about="">
        <dc:format>image/svg+xml</dc:format>
        <dc:type
           rdf:resource="http://purl.org/dc/dcmitype/StillImage" />
      </cc:Work>
    </rdf:RDF>
  </metadata>
  <sodipodi:namedview
     pagecolor="#ffffff"
     bordercolor="#666666"
     borderopacity="1"
     objecttolerance="10"
     gridtolerance="10"
     guidetolerance="10"
     inkscape:pageopacity="0"
     inkscape:pageshadow="2"
     inkscape:window-width="1304"
     inkscape:window-height="745"
     id="namedview148"
     showgrid="false"
     inkscape:zoom="0.39957589"
     inkscape:cx="369.3265"
     inkscape:cy="343.12397"
     inkscape:window-x="54"
     inkscape:window-y="-8"
     inkscape:window-maximized="1"
     inkscape:current-layer="svg146" />
  <defs
     id="defs2" />
  <g
     id="background-images-86feea13"
     transform="scale(2)" />
  <g
     id="g36"
     transform="matrix(3.3576895,0,0,3.3576895,-184.81046,-172.87414)">
    <path
       fill="none"
       stroke="#000000"
       class="dcg-svg-minor-gridline"
       paint-order="fill stroke markers"
       d="M 180.5,0 V 400"
       stroke-opacity="0.2"
       stroke-miterlimit="10"
       stroke-dasharray="none"
       id="path8" />
    <path
       fill="none"
       stroke="#000000"
       class="dcg-svg-minor-gridline"
       paint-order="fill stroke markers"
       d="M 274.5,0 V 400"
       stroke-opacity="0.2"
       stroke-miterlimit="10"
       stroke-dasharray="none"
       id="path10" />
    <path
       fill="none"
       stroke="#000000"
       class="dcg-svg-minor-gridline"
       paint-order="fill stroke markers"
       d="M 0,399.5 H 400"
       stroke-opacity="0.2"
       stroke-miterlimit="10"
       stroke-dasharray="none"
       id="path14" />
    <path
       fill="none"
       stroke="#000000"
       class="dcg-svg-minor-gridline"
       paint-order="fill stroke markers"
       d="M 0,119.5 H 400"
       stroke-opacity="0.2"
       stroke-miterlimit="10"
       stroke-dasharray="none"
       id="path18" />
    <path
       fill="none"
       stroke="#000000"
       class="dcg-svg-major-gridline"
       paint-order="fill stroke markers"
       d="M 0,399.5 H 400"
       stroke-opacity="0.25"
       stroke-miterlimit="10"
       stroke-dasharray="none"
       id="path28" />
    <path
       fill="none"
       stroke="#000000"
       class="dcg-svg-major-gridline"
       paint-order="fill stroke markers"
       d="M 86.5,0 V 400"
       stroke-opacity="0.25"
       stroke-miterlimit="10"
       stroke-dasharray="none"
       id="path559" />
  </g>
  <g
     id="yaxis-86feea13"
     transform="scale(2)">
    <title
       id="title39">Y axis</title>
    <g
       id="g43" />
  </g>
  <g
     id="xaxis-86feea13"
     transform="matrix(3.3576895,0,0,3.3576895,-184.81046,-172.87414)">
    <title
       id="title46">x</title>
    <g
       id="g50">
      <path
         fill="none"
         stroke="#000000"
         class="dcg-svg-axis-line"
         paint-order="fill stroke markers"
         d="M 0,213 H 400"
         stroke-opacity="0.9"
         stroke-miterlimit="10"
         stroke-width="1.5"
         stroke-dasharray="none"
         id="path48" />
    </g>
  </g>
  <g
     id="g53"
     transform="scale(2)" />
  <g
     id="expressions-86feea13"
     transform="matrix(3.3576895,0,0,3.3576895,-184.81046,-172.87414)">
    <g
       id="sketch-86feea13">
      <title
         id="title63">Expression 1</title>
      <path
         fill="none"
         stroke="#000000"
         class="dcg-svg-point"
         paint-order="fill stroke markers"
         d="m 87.11188,212.64534 v 0.2 h 0.2 v -0.2"
         stroke-linecap="round"
         stroke-linejoin="round"
         stroke-miterlimit="10"
         stroke-width="7.5"
         stroke-opacity="0.9"
         stroke-dasharray="none"
         id="path65" />
    </g>
    <g
       id="g72">
      <title
         id="title68">Expression 2</title>
      <path
         fill="none"
         stroke="#000000"
         class="dcg-svg-point"
         paint-order="fill stroke markers"
         d="m 180.58035,212.64534 v 0.2 h 0.2 v -0.2"
         stroke-linecap="round"
         stroke-linejoin="round"
         stroke-miterlimit="10"
         stroke-width="7.5"
         stroke-opacity="0.9"
         stroke-dasharray="none"
         id="path70" />
    </g>
    <g
       id="g78">
      <title
         id="title74">Expression 3</title>
      <path
         fill="none"
         stroke="#000000"
         class="dcg-svg-point"
         paint-order="fill stroke markers"
         d="m 274.04882,212.64534 v 0.2 h 0.2 v -0.2"
         stroke-linecap="round"
         stroke-linejoin="round"
         stroke-miterlimit="10"
         stroke-width="7.5"
         stroke-opacity="0.9"
         stroke-dasharray="none"
         id="path76" />
    </g>
    <g
       id="g88">
      <title
         id="title80">Expression 4</title>
      <path
         fill="#2d70b3"
         stroke="none"
         paint-order="stroke fill markers"
         d=""
         fill-opacity="0.4"
         id="path82" />
      <g
         id="g86">
        <path
           fill="none"
           stroke="#2d70b3"
           class="dcg-svg-curve"
           paint-order="fill stroke markers"
           d="m 86.132813,212.19958 5.273437,2.54884 5.175781,2.21232 5.175779,1.92572 5.07813,1.61084 5.07812,1.33494 4.98047,1.04129 4.98047,0.7759 4.98047,0.51052 4.98047,0.24513 4.98047,-0.0203 4.98046,-0.28564 4.98047,-0.55102 4.98047,-0.8164 4.98047,-1.08179 4.98047,-1.34717 5.07813,-1.64683 5.07812,-1.92272 5.17578,-2.2436 5.17578,-2.53021 5.27344,-2.87272 5.37109,-3.23176 5.46875,-3.60763 5.56641,-4.00064 5.66406,-4.41111 5.76172,-4.83932 5.85938,-5.2856 6.05468,-5.84766 6.15235,-6.34374 6.34765,-6.96957 6.44532,-7.51789 6.64062,-8.21055 6.83594,-8.94485 6.93359,-9.58336 7.03125,-10.24359"
           stroke-linecap="round"
           stroke-linejoin="round"
           stroke-miterlimit="10"
           stroke-width="2.5"
           stroke-opacity="0.9"
           stroke-dasharray="none"
           id="path84"
           sodipodi:nodetypes="ccccccccccccccccccccccccccccccccccc" />
      </g>
    </g>
    <g
       id="g100">
      <title
         id="title90" />
      <path
         fill="none"
         stroke="#000000"
         class="dcg-svg-point"
         paint-order="fill stroke markers"
         d="m 87.11188,212.64534 v 0.2 h 0.2 v -0.2"
         stroke-linecap="round"
         stroke-linejoin="round"
         stroke-miterlimit="10"
         stroke-width="7.5"
         stroke-opacity="0.9"
         stroke-dasharray="none"
         id="path94" />
      <path
         fill="none"
         stroke="#000000"
         class="dcg-svg-point"
         paint-order="fill stroke markers"
         d="m 180.58035,212.64534 v 0.2 h 0.2 v -0.2"
         stroke-linecap="round"
         stroke-linejoin="round"
         stroke-miterlimit="10"
         stroke-width="7.5"
         stroke-opacity="0.9"
         stroke-dasharray="none"
         id="path96" />
      <path
         fill="none"
         stroke="#000000"
         class="dcg-svg-point"
         paint-order="fill stroke markers"
         d="m 274.04882,119.17687 v 0.2 h 0.2 v -0.2"
         stroke-linecap="round"
         stroke-linejoin="round"
         stroke-miterlimit="10"
         stroke-width="7.5"
         stroke-opacity="0.9"
         stroke-dasharray="none"
         id="path98" />
    </g>
    <g
       id="g110">
      <title
         id="title102">Expression 6</title>
      <path
         fill="#c74440"
         stroke="none"
         paint-order="stroke fill markers"
         d=""
         fill-opacity="0.4"
         id="path104" />
      <g
         id="g108">
        <path
           fill="none"
           stroke="#c74440"
           class="dcg-svg-curve"
           paint-order="fill stroke markers"
           d="m 87.402344,119.56237 7.03125,10.26809 7.031246,9.73914 6.9336,9.08592 6.83594,8.45443 6.64062,7.73413 6.44531,7.05548 6.34766,6.51417 6.15234,5.90235 6.05469,5.41329 5.85938,4.86523 5.76171,4.42596 5.66407,4.00475 5.5664,3.60129 5.46875,3.21528 5.3711,2.84642 5.27343,2.49439 5.17578,2.15888 5.17579,1.87227 5.07812,1.55841 5.07813,1.28251 4.98046,0.98986 4.98047,0.72447 4.98047,0.45909 4.98047,0.19371 4.98047,-0.0717 4.98047,-0.33706 4.98047,-0.60245 4.98047,-0.86783 4.98047,-1.13322 4.98046,-1.3986 5.07813,-1.69926 5.07812,-1.97516 5.17579,-2.29704"
           stroke-linecap="round"
           stroke-linejoin="round"
           stroke-miterlimit="10"
           stroke-width="2.5"
           stroke-opacity="0.9"
           stroke-dasharray="none"
           id="path106"
           sodipodi:nodetypes="cccccccccccccccccccccccccccccccccc" />
      </g>
    </g>
    <g
       id="g120">
      <title
         id="title112" />
      <path
         fill="none"
         stroke="#000000"
         class="dcg-svg-point"
         paint-order="fill stroke markers"
         d="m 87.11188,119.17687 v 0.2 h 0.2 v -0.2"
         stroke-linecap="round"
         stroke-linejoin="round"
         stroke-miterlimit="10"
         stroke-width="7.5"
         stroke-opacity="0.9"
         stroke-dasharray="none"
         id="path114" />
      <path
         fill="none"
         stroke="#000000"
         class="dcg-svg-point"
         paint-order="fill stroke markers"
         d="m 180.58035,212.64534 v 0.2 h 0.2 v -0.2"
         stroke-linecap="round"
         stroke-linejoin="round"
         stroke-miterlimit="10"
         stroke-width="7.5"
         stroke-opacity="0.9"
         stroke-dasharray="none"
         id="path116" />
      <path
         fill="none"
         stroke="#000000"
         class="dcg-svg-point"
         paint-order="fill stroke markers"
         d="m 274.04882,212.64534 v 0.2 h 0.2 v -0.2"
         stroke-linecap="round"
         stroke-linejoin="round"
         stroke-miterlimit="10"
         stroke-width="7.5"
         stroke-opacity="0.9"
         stroke-dasharray="none"
         id="path118" />
    </g>
    <g
       id="g130">
      <title
         id="title122">Expression 8</title>
      <path
         fill="#000000"
         stroke="none"
         paint-order="stroke fill markers"
         d=""
         fill-opacity="0.4"
         id="path124" />
      <g
         id="g128">
        <path
           fill="none"
           stroke="#000000"
           class="dcg-svg-curve"
           paint-order="fill stroke markers"
           d="m 85.742188,215.70784 5.175781,-10.22773 5.078125,-9.47765 5.078126,-8.92587 4.98047,-8.21824 4.98047,-7.68747 4.98047,-7.15671 4.98046,-6.62594 4.78516,-5.86614 4.6875,-5.27136 4.49219,-4.61054 4.29687,-4.00604 4.19922,-3.53329 4.10156,-3.08687 3.90625,-2.60521 3.8086,-2.22572 3.80859,-1.91533 3.71094,-1.56769 3.61328,-1.24329 3.61328,-0.96393 3.51563,-0.66973 3.51562,-0.40527 3.51563,-0.14081 3.51562,0.12366 3.51563,0.38813 3.51562,0.65259 3.51563,0.91706 3.61328,1.21813 3.61328,1.49748 3.71094,1.82875 3.71093,2.12341 3.8086,2.48569 3.90625,2.87185 4.0039,3.2825 4.19922,3.81115 4.29688,4.29036 4.39453,4.79651 4.58984,5.45087 4.78516,6.16278 4.98047,6.93468 4.98047,7.46545 4.98046,7.99622 4.98047,8.52699 5.07813,9.24067 5.07812,9.79245"
           stroke-linecap="round"
           stroke-linejoin="round"
           stroke-miterlimit="10"
           stroke-width="2.5"
           stroke-opacity="0.9"
           stroke-dasharray="none"
           id="path126"
           sodipodi:nodetypes="ccccccccccccccccccccccccccccccccccccccccccccc" />
      </g>
    </g>
    <g
       id="g140">
      <title
         id="title132" />
      <path
         fill="none"
         stroke="#000000"
         class="dcg-svg-point"
         paint-order="fill stroke markers"
         d="m 87.11188,212.64534 v 0.2 h 0.2 v -0.2"
         stroke-linecap="round"
         stroke-linejoin="round"
         stroke-miterlimit="10"
         stroke-width="7.5"
         stroke-opacity="0.9"
         stroke-dasharray="none"
         id="path134" />
      <path
         fill="none"
         stroke="#000000"
         class="dcg-svg-point"
         paint-order="fill stroke markers"
         d="m 180.58035,119.17687 v 0.2 h 0.2 v -0.2"
         stroke-linecap="round"
         stroke-linejoin="round"
         stroke-miterlimit="10"
         stroke-width="7.5"
         stroke-opacity="0.9"
         stroke-dasharray="none"
         id="path136" />
      <path
         fill="none"
         stroke="#000000"
         class="dcg-svg-point"
         paint-order="fill stroke markers"
         d="m 274.04882,212.64534 v 0.2 h 0.2 v -0.2"
         stroke-linecap="round"
         stroke-linejoin="round"
         stroke-miterlimit="10"
         stroke-width="7.5"
         stroke-opacity="0.9"
         stroke-dasharray="none"
         id="path138" />
    </g>
  </g>
  <g
     id="labels-86feea13"
     transform="scale(2)" />
  <g
     style="fill:#000000;fill-opacity:1"
     id="g770"
     transform="matrix(5.5572206,0,0,5.5572206,-1403.3503,-1336.4439)">
    <g
       id="use768"
       transform="translate(260.29001,351.16501)">
      <path
         style="stroke:none"
         d="m 5.671875,-4.875 c -0.390625,0.0625 -0.53125,0.359375 -0.53125,0.578125 0,0.296875 0.21875,0.390625 0.390625,0.390625 0.359375,0 0.609375,-0.3125 0.609375,-0.640625 0,-0.5 -0.578125,-0.71875 -1.078125,-0.71875 -0.71875,0 -1.125,0.71875 -1.234375,0.9375 -0.28125,-0.890625 -1.015625,-0.9375 -1.234375,-0.9375 -1.21875,0 -1.859375,1.5625 -1.859375,1.828125 0,0.046875 0.046875,0.109375 0.125,0.109375 0.09375,0 0.125,-0.078125 0.140625,-0.125 0.40625,-1.328125 1.21875,-1.578125 1.5625,-1.578125 0.53125,0 0.640625,0.5 0.640625,0.78125 0,0.265625 -0.078125,0.546875 -0.21875,1.125 L 2.578125,-1.5 c -0.171875,0.71875 -0.515625,1.375 -1.15625,1.375 -0.0625,0 -0.359375,0 -0.609375,-0.15625 C 1.25,-0.359375 1.34375,-0.71875 1.34375,-0.859375 1.34375,-1.09375 1.15625,-1.25 0.9375,-1.25 c -0.296875,0 -0.609375,0.265625 -0.609375,0.640625 0,0.5 0.5625,0.734375 1.078125,0.734375 0.578125,0 0.984375,-0.453125 1.234375,-0.953125 C 2.828125,-0.125 3.4375,0.125 3.875,0.125 5.09375,0.125 5.734375,-1.453125 5.734375,-1.703125 5.734375,-1.765625 5.6875,-1.8125 5.625,-1.8125 5.515625,-1.8125 5.5,-1.75 5.46875,-1.65625 5.140625,-0.609375 4.453125,-0.125 3.90625,-0.125 3.484375,-0.125 3.265625,-0.4375 3.265625,-0.921875 3.265625,-1.1875 3.3125,-1.375 3.5,-2.15625 L 3.921875,-3.796875 C 4.09375,-4.5 4.5,-5.03125 5.0625,-5.03125 c 0.015625,0 0.359375,0 0.609375,0.15625 z m 0,0"
         id="path326" />
    </g>
  </g>
  <g
     style="fill:#000000;fill-opacity:1"
     id="g774"
     transform="matrix(5.5572206,0,0,5.5572206,-1403.3503,-1336.4439)">
    <g
       id="use772"
       transform="translate(266.94199,352.95901)">
      <path
         style="stroke:none"
         d="m 2.375,-4.96875 c 0,-0.171875 -0.125,-0.3125 -0.3125,-0.3125 -0.203125,0 -0.4375,0.203125 -0.4375,0.4375 0,0.171875 0.125,0.296875 0.3125,0.296875 0.203125,0 0.4375,-0.1875 0.4375,-0.421875 z m -1.15625,2.921875 -0.4375,1.09375 c -0.046875,0.125 -0.078125,0.21875 -0.078125,0.359375 0,0.390625 0.296875,0.671875 0.71875,0.671875 0.78125,0 1.109375,-1.109375 1.109375,-1.21875 0,-0.078125 -0.0625,-0.109375 -0.125,-0.109375 -0.09375,0 -0.109375,0.0625 -0.140625,0.140625 -0.171875,0.640625 -0.5,0.96875 -0.828125,0.96875 -0.09375,0 -0.1875,-0.046875 -0.1875,-0.25 0,-0.203125 0.0625,-0.34375 0.15625,-0.59375 C 1.484375,-1.1875 1.5625,-1.40625 1.65625,-1.625 l 0.25,-0.640625 c 0.0625,-0.1875 0.171875,-0.4375 0.171875,-0.578125 0,-0.390625 -0.328125,-0.671875 -0.734375,-0.671875 -0.765625,0 -1.109375,1.109375 -1.109375,1.21875 0,0.078125 0.0625,0.109375 0.125,0.109375 0.109375,0 0.109375,-0.046875 0.140625,-0.125 0.21875,-0.765625 0.578125,-0.984375 0.828125,-0.984375 0.109375,0 0.1875,0.046875 0.1875,0.265625 0,0.078125 -0.015625,0.1875 -0.09375,0.4375 z m 0,0"
         id="path274" />
    </g>
  </g>
  <g
     style="fill:#000000;fill-opacity:1"
     id="g778"
     transform="matrix(5.5572206,0,0,5.5572206,-1269.0427,-1336.4439)">
    <g
       id="use776"
       transform="translate(282.02899,351.16501)">
      <path
         style="stroke:none"
         d="m 5.671875,-4.875 c -0.390625,0.0625 -0.53125,0.359375 -0.53125,0.578125 0,0.296875 0.21875,0.390625 0.390625,0.390625 0.359375,0 0.609375,-0.3125 0.609375,-0.640625 0,-0.5 -0.578125,-0.71875 -1.078125,-0.71875 -0.71875,0 -1.125,0.71875 -1.234375,0.9375 -0.28125,-0.890625 -1.015625,-0.9375 -1.234375,-0.9375 -1.21875,0 -1.859375,1.5625 -1.859375,1.828125 0,0.046875 0.046875,0.109375 0.125,0.109375 0.09375,0 0.125,-0.078125 0.140625,-0.125 0.40625,-1.328125 1.21875,-1.578125 1.5625,-1.578125 0.53125,0 0.640625,0.5 0.640625,0.78125 0,0.265625 -0.078125,0.546875 -0.21875,1.125 L 2.578125,-1.5 c -0.171875,0.71875 -0.515625,1.375 -1.15625,1.375 -0.0625,0 -0.359375,0 -0.609375,-0.15625 C 1.25,-0.359375 1.34375,-0.71875 1.34375,-0.859375 1.34375,-1.09375 1.15625,-1.25 0.9375,-1.25 c -0.296875,0 -0.609375,0.265625 -0.609375,0.640625 0,0.5 0.5625,0.734375 1.078125,0.734375 0.578125,0 0.984375,-0.453125 1.234375,-0.953125 C 2.828125,-0.125 3.4375,0.125 3.875,0.125 5.09375,0.125 5.734375,-1.453125 5.734375,-1.703125 5.734375,-1.765625 5.6875,-1.8125 5.625,-1.8125 5.515625,-1.8125 5.5,-1.75 5.46875,-1.65625 5.140625,-0.609375 4.453125,-0.125 3.90625,-0.125 3.484375,-0.125 3.265625,-0.4375 3.265625,-0.921875 3.265625,-1.1875 3.3125,-1.375 3.5,-2.15625 L 3.921875,-3.796875 C 4.09375,-4.5 4.5,-5.03125 5.0625,-5.03125 c 0.015625,0 0.359375,0 0.609375,0.15625 z m 0,0"
         id="path330" />
    </g>
  </g>
  <g
     style="fill:#000000;fill-opacity:1"
     id="g782"
     transform="matrix(5.5572206,0,0,5.5572206,-1269.0427,-1336.4439)">
    <g
       id="use780"
       transform="translate(288.681,354.15799)">
      <path
         style="stroke:none"
         d="m 2.375,-4.96875 c 0,-0.171875 -0.125,-0.3125 -0.3125,-0.3125 -0.203125,0 -0.4375,0.203125 -0.4375,0.4375 0,0.171875 0.125,0.296875 0.3125,0.296875 0.203125,0 0.4375,-0.1875 0.4375,-0.421875 z m -1.15625,2.921875 -0.4375,1.09375 c -0.046875,0.125 -0.078125,0.21875 -0.078125,0.359375 0,0.390625 0.296875,0.671875 0.71875,0.671875 0.78125,0 1.109375,-1.109375 1.109375,-1.21875 0,-0.078125 -0.0625,-0.109375 -0.125,-0.109375 -0.09375,0 -0.109375,0.0625 -0.140625,0.140625 -0.171875,0.640625 -0.5,0.96875 -0.828125,0.96875 -0.09375,0 -0.1875,-0.046875 -0.1875,-0.25 0,-0.203125 0.0625,-0.34375 0.15625,-0.59375 C 1.484375,-1.1875 1.5625,-1.40625 1.65625,-1.625 l 0.25,-0.640625 c 0.0625,-0.1875 0.171875,-0.4375 0.171875,-0.578125 0,-0.390625 -0.328125,-0.671875 -0.734375,-0.671875 -0.765625,0 -1.109375,1.109375 -1.109375,1.21875 0,0.078125 0.0625,0.109375 0.125,0.109375 0.109375,0 0.109375,-0.046875 0.140625,-0.125 0.21875,-0.765625 0.578125,-0.984375 0.828125,-0.984375 0.109375,0 0.1875,0.046875 0.1875,0.265625 0,0.078125 -0.015625,0.1875 -0.09375,0.4375 z m 0,0"
         id="path278" />
    </g>
  </g>
  <g
     style="fill:#000000;fill-opacity:1"
     id="g786"
     transform="matrix(5.5572206,0,0,5.5572206,-1269.0427,-1336.4439)">
    <g
       id="use784"
       transform="translate(291.565,354.15799)">
      <path
         style="stroke:none"
         d="M 3.46875,-1.8125 H 5.8125 c 0.109375,0 0.296875,0 0.296875,-0.171875 0,-0.1875 -0.1875,-0.1875 -0.296875,-0.1875 H 3.46875 V -4.53125 c 0,-0.109375 0,-0.28125 -0.171875,-0.28125 -0.1875,0 -0.1875,0.171875 -0.1875,0.28125 v 2.359375 H 0.75 c -0.109375,0 -0.28125,0 -0.28125,0.1875 0,0.171875 0.171875,0.171875 0.28125,0.171875 h 2.359375 v 2.359375 c 0,0.109375 0,0.28125 0.1875,0.28125 0.171875,0 0.171875,-0.171875 0.171875,-0.28125 z m 0,0"
         id="path298" />
    </g>
  </g>
  <g
     style="fill:#000000;fill-opacity:1"
     id="g790"
     transform="matrix(5.5572206,0,0,5.5572206,-1269.0427,-1336.4439)">
    <g
       id="use788"
       transform="translate(299.34698,350.89999)">
      <path
         style="stroke:none"
         d="m 2.140625,-3.796875 c 0,-0.1875 -0.015625,-0.1875 -0.203125,-0.1875 -0.390625,0.390625 -1,0.390625 -1.21875,0.390625 v 0.234375 c 0.15625,0 0.5625,0 0.921875,-0.171875 v 3.015625 c 0,0.203125 0,0.28125 -0.625,0.28125 h -0.25 V 0 c 0.328125,-0.03125 0.796875,-0.03125 1.125,-0.03125 0.328125,0 0.796875,0 1.125,0.03125 v -0.234375 h -0.25 c -0.625,0 -0.625,-0.078125 -0.625,-0.28125 z m 0,0"
         id="path258" />
    </g>
  </g>
  <path
     style="fill:none;stroke:#000000;stroke-width:1.99504;stroke-linecap:butt;stroke-linejoin:miter;stroke-miterlimit:10;stroke-opacity:1"
     d="m 394.49821,620.6093 h 20.29688"
     id="path792" />
  <g
     style="fill:#000000;fill-opacity:1"
     id="g796"
     transform="matrix(5.5572206,0,0,5.5572206,-1269.0427,-1336.4439)">
    <g
       id="use794"
       transform="translate(299.34698,357.284)">
      <path
         style="stroke:none"
         d="M 3.21875,-1.125 H 3 C 2.984375,-1.03125 2.921875,-0.640625 2.84375,-0.578125 2.796875,-0.53125 2.3125,-0.53125 2.21875,-0.53125 H 1.109375 L 1.875,-1.15625 C 2.078125,-1.328125 2.609375,-1.703125 2.796875,-1.890625 2.96875,-2.0625 3.21875,-2.375 3.21875,-2.796875 c 0,-0.75 -0.671875,-1.1875 -1.484375,-1.1875 -0.765625,0 -1.296875,0.515625 -1.296875,1.078125 0,0.296875 0.25,0.34375 0.3125,0.34375 0.15625,0 0.328125,-0.109375 0.328125,-0.328125 C 1.078125,-3.015625 1,-3.21875 0.734375,-3.21875 0.875,-3.515625 1.234375,-3.75 1.65625,-3.75 c 0.625,0 0.953125,0.46875 0.953125,0.953125 0,0.421875 -0.28125,0.859375 -0.6875,1.25 L 0.5,-0.25 C 0.4375,-0.1875 0.4375,-0.1875 0.4375,0 h 2.59375 z m 0,0"
         id="path266" />
    </g>
  </g>
  <g
     style="fill:#000000;fill-opacity:1"
     id="g800"
     transform="matrix(5.5572206,0,0,5.5572206,-1138.0928,-1336.4439)">
    <g
       id="use798"
       transform="translate(316.39899,351.16501)">
      <path
         style="stroke:none"
         d="m 5.671875,-4.875 c -0.390625,0.0625 -0.53125,0.359375 -0.53125,0.578125 0,0.296875 0.21875,0.390625 0.390625,0.390625 0.359375,0 0.609375,-0.3125 0.609375,-0.640625 0,-0.5 -0.578125,-0.71875 -1.078125,-0.71875 -0.71875,0 -1.125,0.71875 -1.234375,0.9375 -0.28125,-0.890625 -1.015625,-0.9375 -1.234375,-0.9375 -1.21875,0 -1.859375,1.5625 -1.859375,1.828125 0,0.046875 0.046875,0.109375 0.125,0.109375 0.09375,0 0.125,-0.078125 0.140625,-0.125 0.40625,-1.328125 1.21875,-1.578125 1.5625,-1.578125 0.53125,0 0.640625,0.5 0.640625,0.78125 0,0.265625 -0.078125,0.546875 -0.21875,1.125 L 2.578125,-1.5 c -0.171875,0.71875 -0.515625,1.375 -1.15625,1.375 -0.0625,0 -0.359375,0 -0.609375,-0.15625 C 1.25,-0.359375 1.34375,-0.71875 1.34375,-0.859375 1.34375,-1.09375 1.15625,-1.25 0.9375,-1.25 c -0.296875,0 -0.609375,0.265625 -0.609375,0.640625 0,0.5 0.5625,0.734375 1.078125,0.734375 0.578125,0 0.984375,-0.453125 1.234375,-0.953125 C 2.828125,-0.125 3.4375,0.125 3.875,0.125 5.09375,0.125 5.734375,-1.453125 5.734375,-1.703125 5.734375,-1.765625 5.6875,-1.8125 5.625,-1.8125 5.515625,-1.8125 5.5,-1.75 5.46875,-1.65625 5.140625,-0.609375 4.453125,-0.125 3.90625,-0.125 3.484375,-0.125 3.265625,-0.4375 3.265625,-0.921875 3.265625,-1.1875 3.3125,-1.375 3.5,-2.15625 L 3.921875,-3.796875 C 4.09375,-4.5 4.5,-5.03125 5.0625,-5.03125 c 0.015625,0 0.359375,0 0.609375,0.15625 z m 0,0"
         id="path334" />
    </g>
  </g>
  <g
     style="fill:#000000;fill-opacity:1"
     id="g804"
     transform="matrix(5.5572206,0,0,5.5572206,-1138.0928,-1336.4439)">
    <g
       id="use802"
       transform="translate(323.05099,352.95901)">
      <path
         style="stroke:none"
         d="m 2.375,-4.96875 c 0,-0.171875 -0.125,-0.3125 -0.3125,-0.3125 -0.203125,0 -0.4375,0.203125 -0.4375,0.4375 0,0.171875 0.125,0.296875 0.3125,0.296875 0.203125,0 0.4375,-0.1875 0.4375,-0.421875 z m -1.15625,2.921875 -0.4375,1.09375 c -0.046875,0.125 -0.078125,0.21875 -0.078125,0.359375 0,0.390625 0.296875,0.671875 0.71875,0.671875 0.78125,0 1.109375,-1.109375 1.109375,-1.21875 0,-0.078125 -0.0625,-0.109375 -0.125,-0.109375 -0.09375,0 -0.109375,0.0625 -0.140625,0.140625 -0.171875,0.640625 -0.5,0.96875 -0.828125,0.96875 -0.09375,0 -0.1875,-0.046875 -0.1875,-0.25 0,-0.203125 0.0625,-0.34375 0.15625,-0.59375 C 1.484375,-1.1875 1.5625,-1.40625 1.65625,-1.625 l 0.25,-0.640625 c 0.0625,-0.1875 0.171875,-0.4375 0.171875,-0.578125 0,-0.390625 -0.328125,-0.671875 -0.734375,-0.671875 -0.765625,0 -1.109375,1.109375 -1.109375,1.21875 0,0.078125 0.0625,0.109375 0.125,0.109375 0.109375,0 0.109375,-0.046875 0.140625,-0.125 0.21875,-0.765625 0.578125,-0.984375 0.828125,-0.984375 0.109375,0 0.1875,0.046875 0.1875,0.265625 0,0.078125 -0.015625,0.1875 -0.09375,0.4375 z m 0,0"
         id="path282" />
    </g>
  </g>
  <g
     style="fill:#000000;fill-opacity:1"
     id="g810"
     transform="matrix(5.5572206,0,0,5.5572206,-1138.0928,-1336.4439)">
    <g
       id="use806"
       transform="translate(325.93399,352.95901)">
      <path
         style="stroke:none"
         d="M 3.46875,-1.8125 H 5.8125 c 0.109375,0 0.296875,0 0.296875,-0.171875 0,-0.1875 -0.1875,-0.1875 -0.296875,-0.1875 H 3.46875 V -4.53125 c 0,-0.109375 0,-0.28125 -0.171875,-0.28125 -0.1875,0 -0.1875,0.171875 -0.1875,0.28125 v 2.359375 H 0.75 c -0.109375,0 -0.28125,0 -0.28125,0.1875 0,0.171875 0.171875,0.171875 0.28125,0.171875 h 2.359375 v 2.359375 c 0,0.109375 0,0.28125 0.1875,0.28125 0.171875,0 0.171875,-0.171875 0.171875,-0.28125 z m 0,0"
         id="path302" />
    </g>
    <g
       id="use808"
       transform="translate(332.52048,352.95901)">
      <path
         style="stroke:none"
         d="m 2.5,-5.078125 c 0,-0.21875 -0.015625,-0.21875 -0.234375,-0.21875 -0.328125,0.3125 -0.75,0.5 -1.5,0.5 v 0.265625 c 0.21875,0 0.640625,0 1.109375,-0.203125 v 4.078125 c 0,0.296875 -0.03125,0.390625 -0.78125,0.390625 H 0.8125 V 0 c 0.328125,-0.03125 1.015625,-0.03125 1.375,-0.03125 0.359375,0 1.046875,0 1.375,0.03125 V -0.265625 H 3.28125 c -0.75,0 -0.78125,-0.09375 -0.78125,-0.390625 z m 0,0"
         id="path338" />
    </g>
  </g>
  <g
     style="fill:#000000;fill-opacity:1"
     id="g814"
     transform="matrix(6.1848961,0,0,6.1848961,-1580.1143,-2106.8341)">
    <g
       id="use812"
       transform="translate(259.87601,372.08701)">
      <path
         style="stroke:none"
         d="m 5.140625,-8.1875 c 0,-0.109375 -0.078125,-0.109375 -0.125,-0.109375 -0.109375,0 -0.109375,0.03125 -0.15625,0.234375 L 4.203125,-5.5 c -0.03125,0.15625 -0.046875,0.171875 -0.0625,0.1875 0,0.015625 -0.09375,0.03125 -0.109375,0.03125 C 2.0625,-5.109375 0.5625,-3.5 0.5625,-2.015625 c 0,1.296875 0.984375,2.09375 2.234375,2.15625 -0.09375,0.375 -0.171875,0.75 -0.28125,1.125 -0.15625,0.640625 -0.25,1.03125 -0.25,1.078125 0,0.015625 0,0.09375 0.109375,0.09375 0.046875,0 0.09375,0 0.109375,-0.046875 0.03125,-0.03125 0.09375,-0.3125 0.140625,-0.46875 l 0.453125,-1.78125 c 2.03125,-0.109375 3.59375,-1.78125 3.59375,-3.28125 0,-1.203125 -0.90625,-2.078125 -2.234375,-2.15625 z m -0.78125,3.125 C 5.15625,-5.015625 5.9375,-4.5625 5.9375,-3.390625 5.9375,-2.046875 5,-0.25 3.125,-0.109375 Z m -1.5,4.96875 C 2.265625,-0.125 1.296875,-0.4375 1.296875,-1.75 c 0,-1.515625 1.078125,-3.1875 2.796875,-3.296875 z m 0,0"
         id="path314" />
    </g>
  </g>
  <g
     style="fill:#000000;fill-opacity:1"
     id="g818"
     transform="matrix(6.1848961,0,0,6.1848961,-1580.1143,-2106.8341)">
    <g
       id="use816"
       transform="translate(266.80399,373.88)">
      <path
         style="stroke:none"
         d="m 2.375,-4.96875 c 0,-0.171875 -0.125,-0.3125 -0.3125,-0.3125 -0.203125,0 -0.4375,0.203125 -0.4375,0.4375 0,0.171875 0.125,0.296875 0.3125,0.296875 0.203125,0 0.4375,-0.1875 0.4375,-0.421875 z m -1.15625,2.921875 -0.4375,1.09375 c -0.046875,0.125 -0.078125,0.21875 -0.078125,0.359375 0,0.390625 0.296875,0.671875 0.71875,0.671875 0.78125,0 1.109375,-1.109375 1.109375,-1.21875 0,-0.078125 -0.0625,-0.109375 -0.125,-0.109375 -0.09375,0 -0.109375,0.0625 -0.140625,0.140625 -0.171875,0.640625 -0.5,0.96875 -0.828125,0.96875 -0.09375,0 -0.1875,-0.046875 -0.1875,-0.25 0,-0.203125 0.0625,-0.34375 0.15625,-0.59375 C 1.484375,-1.1875 1.5625,-1.40625 1.65625,-1.625 l 0.25,-0.640625 c 0.0625,-0.1875 0.171875,-0.4375 0.171875,-0.578125 0,-0.390625 -0.328125,-0.671875 -0.734375,-0.671875 -0.765625,0 -1.109375,1.109375 -1.109375,1.21875 0,0.078125 0.0625,0.109375 0.125,0.109375 0.109375,0 0.109375,-0.046875 0.140625,-0.125 0.21875,-0.765625 0.578125,-0.984375 0.828125,-0.984375 0.109375,0 0.1875,0.046875 0.1875,0.265625 0,0.078125 -0.015625,0.1875 -0.09375,0.4375 z m 0,0"
         id="path286" />
    </g>
  </g>
  <g
     style="fill:#000000;fill-opacity:1"
     id="g822"
     transform="matrix(6.1848961,0,0,6.1848961,-1516.3182,-2106.8341)">
    <g
       id="use820"
       transform="translate(281.89099,372.08701)">
      <path
         style="stroke:none"
         d="m 5.140625,-8.1875 c 0,-0.109375 -0.078125,-0.109375 -0.125,-0.109375 -0.109375,0 -0.109375,0.03125 -0.15625,0.234375 L 4.203125,-5.5 c -0.03125,0.15625 -0.046875,0.171875 -0.0625,0.1875 0,0.015625 -0.09375,0.03125 -0.109375,0.03125 C 2.0625,-5.109375 0.5625,-3.5 0.5625,-2.015625 c 0,1.296875 0.984375,2.09375 2.234375,2.15625 -0.09375,0.375 -0.171875,0.75 -0.28125,1.125 -0.15625,0.640625 -0.25,1.03125 -0.25,1.078125 0,0.015625 0,0.09375 0.109375,0.09375 0.046875,0 0.09375,0 0.109375,-0.046875 0.03125,-0.03125 0.09375,-0.3125 0.140625,-0.46875 l 0.453125,-1.78125 c 2.03125,-0.109375 3.59375,-1.78125 3.59375,-3.28125 0,-1.203125 -0.90625,-2.078125 -2.234375,-2.15625 z m -0.78125,3.125 C 5.15625,-5.015625 5.9375,-4.5625 5.9375,-3.390625 5.9375,-2.046875 5,-0.25 3.125,-0.109375 Z m -1.5,4.96875 C 2.265625,-0.125 1.296875,-0.4375 1.296875,-1.75 c 0,-1.515625 1.078125,-3.1875 2.796875,-3.296875 z m 0,0"
         id="path318" />
    </g>
  </g>
  <g
     style="fill:#000000;fill-opacity:1"
     id="g826"
     transform="matrix(6.1848961,0,0,6.1848961,-1516.3182,-2106.8341)">
    <g
       id="use824"
       transform="translate(288.819,375.07999)">
      <path
         style="stroke:none"
         d="m 2.375,-4.96875 c 0,-0.171875 -0.125,-0.3125 -0.3125,-0.3125 -0.203125,0 -0.4375,0.203125 -0.4375,0.4375 0,0.171875 0.125,0.296875 0.3125,0.296875 0.203125,0 0.4375,-0.1875 0.4375,-0.421875 z m -1.15625,2.921875 -0.4375,1.09375 c -0.046875,0.125 -0.078125,0.21875 -0.078125,0.359375 0,0.390625 0.296875,0.671875 0.71875,0.671875 0.78125,0 1.109375,-1.109375 1.109375,-1.21875 0,-0.078125 -0.0625,-0.109375 -0.125,-0.109375 -0.09375,0 -0.109375,0.0625 -0.140625,0.140625 -0.171875,0.640625 -0.5,0.96875 -0.828125,0.96875 -0.09375,0 -0.1875,-0.046875 -0.1875,-0.25 0,-0.203125 0.0625,-0.34375 0.15625,-0.59375 C 1.484375,-1.1875 1.5625,-1.40625 1.65625,-1.625 l 0.25,-0.640625 c 0.0625,-0.1875 0.171875,-0.4375 0.171875,-0.578125 0,-0.390625 -0.328125,-0.671875 -0.734375,-0.671875 -0.765625,0 -1.109375,1.109375 -1.109375,1.21875 0,0.078125 0.0625,0.109375 0.125,0.109375 0.109375,0 0.109375,-0.046875 0.140625,-0.125 0.21875,-0.765625 0.578125,-0.984375 0.828125,-0.984375 0.109375,0 0.1875,0.046875 0.1875,0.265625 0,0.078125 -0.015625,0.1875 -0.09375,0.4375 z m 0,0"
         id="path290" />
    </g>
  </g>
  <g
     style="fill:#000000;fill-opacity:1"
     id="g830"
     transform="matrix(6.1848961,0,0,6.1848961,-1516.3182,-2106.8341)">
    <g
       id="use828"
       transform="translate(291.703,375.07999)">
      <path
         style="stroke:none"
         d="M 3.46875,-1.8125 H 5.8125 c 0.109375,0 0.296875,0 0.296875,-0.171875 0,-0.1875 -0.1875,-0.1875 -0.296875,-0.1875 H 3.46875 V -4.53125 c 0,-0.109375 0,-0.28125 -0.171875,-0.28125 -0.1875,0 -0.1875,0.171875 -0.1875,0.28125 v 2.359375 H 0.75 c -0.109375,0 -0.28125,0 -0.28125,0.1875 0,0.171875 0.171875,0.171875 0.28125,0.171875 h 2.359375 v 2.359375 c 0,0.109375 0,0.28125 0.1875,0.28125 0.171875,0 0.171875,-0.171875 0.171875,-0.28125 z m 0,0"
         id="path306" />
    </g>
  </g>
  <g
     style="fill:#000000;fill-opacity:1"
     id="g834"
     transform="matrix(6.1848961,0,0,6.1848961,-1516.3182,-2106.8341)">
    <g
       id="use832"
       transform="translate(299.48499,371.82101)">
      <path
         style="stroke:none"
         d="m 2.140625,-3.796875 c 0,-0.1875 -0.015625,-0.1875 -0.203125,-0.1875 -0.390625,0.390625 -1,0.390625 -1.21875,0.390625 v 0.234375 c 0.15625,0 0.5625,0 0.921875,-0.171875 v 3.015625 c 0,0.203125 0,0.28125 -0.625,0.28125 h -0.25 V 0 c 0.328125,-0.03125 0.796875,-0.03125 1.125,-0.03125 0.328125,0 0.796875,0 1.125,0.03125 v -0.234375 h -0.25 c -0.625,0 -0.625,-0.078125 -0.625,-0.28125 z m 0,0"
         id="path262" />
    </g>
  </g>
  <path
     style="fill:none;stroke:#000000;stroke-width:2.22037;stroke-linecap:butt;stroke-linejoin:miter;stroke-miterlimit:10;stroke-opacity:1"
     d="m 335.96148,200.66384 h 22.58939"
     id="path836" />
  <g
     style="fill:#000000;fill-opacity:1"
     id="g840"
     transform="matrix(6.1848961,0,0,6.1848961,-1516.3182,-2106.8341)">
    <g
       id="use838"
       transform="translate(299.48499,378.20499)">
      <path
         style="stroke:none"
         d="M 3.21875,-1.125 H 3 C 2.984375,-1.03125 2.921875,-0.640625 2.84375,-0.578125 2.796875,-0.53125 2.3125,-0.53125 2.21875,-0.53125 H 1.109375 L 1.875,-1.15625 C 2.078125,-1.328125 2.609375,-1.703125 2.796875,-1.890625 2.96875,-2.0625 3.21875,-2.375 3.21875,-2.796875 c 0,-0.75 -0.671875,-1.1875 -1.484375,-1.1875 -0.765625,0 -1.296875,0.515625 -1.296875,1.078125 0,0.296875 0.25,0.34375 0.3125,0.34375 0.15625,0 0.328125,-0.109375 0.328125,-0.328125 C 1.078125,-3.015625 1,-3.21875 0.734375,-3.21875 0.875,-3.515625 1.234375,-3.75 1.65625,-3.75 c 0.625,0 0.953125,0.46875 0.953125,0.953125 0,0.421875 -0.28125,0.859375 -0.6875,1.25 L 0.5,-0.25 C 0.4375,-0.1875 0.4375,-0.1875 0.4375,0 h 2.59375 z m 0,0"
         id="path270" />
    </g>
  </g>
  <g
     style="fill:#000000;fill-opacity:1"
     id="g844"
     transform="matrix(6.1848961,0,0,6.1848961,-1361.8645,-2106.8341)">
    <g
       id="use842"
       transform="translate(316.53699,372.08701)">
      <path
         style="stroke:none"
         d="m 5.140625,-8.1875 c 0,-0.109375 -0.078125,-0.109375 -0.125,-0.109375 -0.109375,0 -0.109375,0.03125 -0.15625,0.234375 L 4.203125,-5.5 c -0.03125,0.15625 -0.046875,0.171875 -0.0625,0.1875 0,0.015625 -0.09375,0.03125 -0.109375,0.03125 C 2.0625,-5.109375 0.5625,-3.5 0.5625,-2.015625 c 0,1.296875 0.984375,2.09375 2.234375,2.15625 -0.09375,0.375 -0.171875,0.75 -0.28125,1.125 -0.15625,0.640625 -0.25,1.03125 -0.25,1.078125 0,0.015625 0,0.09375 0.109375,0.09375 0.046875,0 0.09375,0 0.109375,-0.046875 0.03125,-0.03125 0.09375,-0.3125 0.140625,-0.46875 l 0.453125,-1.78125 c 2.03125,-0.109375 3.59375,-1.78125 3.59375,-3.28125 0,-1.203125 -0.90625,-2.078125 -2.234375,-2.15625 z m -0.78125,3.125 C 5.15625,-5.015625 5.9375,-4.5625 5.9375,-3.390625 5.9375,-2.046875 5,-0.25 3.125,-0.109375 Z m -1.5,4.96875 C 2.265625,-0.125 1.296875,-0.4375 1.296875,-1.75 c 0,-1.515625 1.078125,-3.1875 2.796875,-3.296875 z m 0,0"
         id="path322" />
    </g>
  </g>
  <g
     style="fill:#000000;fill-opacity:1"
     id="g848"
     transform="matrix(6.1848961,0,0,6.1848961,-1361.8645,-2106.8341)">
    <g
       id="use846"
       transform="translate(323.465,373.88)">
      <path
         style="stroke:none"
         d="m 2.375,-4.96875 c 0,-0.171875 -0.125,-0.3125 -0.3125,-0.3125 -0.203125,0 -0.4375,0.203125 -0.4375,0.4375 0,0.171875 0.125,0.296875 0.3125,0.296875 0.203125,0 0.4375,-0.1875 0.4375,-0.421875 z m -1.15625,2.921875 -0.4375,1.09375 c -0.046875,0.125 -0.078125,0.21875 -0.078125,0.359375 0,0.390625 0.296875,0.671875 0.71875,0.671875 0.78125,0 1.109375,-1.109375 1.109375,-1.21875 0,-0.078125 -0.0625,-0.109375 -0.125,-0.109375 -0.09375,0 -0.109375,0.0625 -0.140625,0.140625 -0.171875,0.640625 -0.5,0.96875 -0.828125,0.96875 -0.09375,0 -0.1875,-0.046875 -0.1875,-0.25 0,-0.203125 0.0625,-0.34375 0.15625,-0.59375 C 1.484375,-1.1875 1.5625,-1.40625 1.65625,-1.625 l 0.25,-0.640625 c 0.0625,-0.1875 0.171875,-0.4375 0.171875,-0.578125 0,-0.390625 -0.328125,-0.671875 -0.734375,-0.671875 -0.765625,0 -1.109375,1.109375 -1.109375,1.21875 0,0.078125 0.0625,0.109375 0.125,0.109375 0.109375,0 0.109375,-0.046875 0.140625,-0.125 0.21875,-0.765625 0.578125,-0.984375 0.828125,-0.984375 0.109375,0 0.1875,0.046875 0.1875,0.265625 0,0.078125 -0.015625,0.1875 -0.09375,0.4375 z m 0,0"
         id="path294" />
    </g>
  </g>
  <g
     style="fill:#000000;fill-opacity:1"
     id="g854"
     transform="matrix(6.1848961,0,0,6.1848961,-1361.8645,-2106.8341)">
    <g
       id="use850"
       transform="translate(326.34799,373.88)">
      <path
         style="stroke:none"
         d="M 3.46875,-1.8125 H 5.8125 c 0.109375,0 0.296875,0 0.296875,-0.171875 0,-0.1875 -0.1875,-0.1875 -0.296875,-0.1875 H 3.46875 V -4.53125 c 0,-0.109375 0,-0.28125 -0.171875,-0.28125 -0.1875,0 -0.1875,0.171875 -0.1875,0.28125 v 2.359375 H 0.75 c -0.109375,0 -0.28125,0 -0.28125,0.1875 0,0.171875 0.171875,0.171875 0.28125,0.171875 h 2.359375 v 2.359375 c 0,0.109375 0,0.28125 0.1875,0.28125 0.171875,0 0.171875,-0.171875 0.171875,-0.28125 z m 0,0"
         id="path310" />
    </g>
    <g
       id="use852"
       transform="translate(332.93448,373.88)">
      <path
         style="stroke:none"
         d="m 2.5,-5.078125 c 0,-0.21875 -0.015625,-0.21875 -0.234375,-0.21875 -0.328125,0.3125 -0.75,0.5 -1.5,0.5 v 0.265625 c 0.21875,0 0.640625,0 1.109375,-0.203125 v 4.078125 c 0,0.296875 -0.03125,0.390625 -0.78125,0.390625 H 0.8125 V 0 c 0.328125,-0.03125 1.015625,-0.03125 1.375,-0.03125 0.359375,0 1.046875,0 1.375,0.03125 V -0.265625 H 3.28125 c -0.75,0 -0.78125,-0.09375 -0.78125,-0.390625 z m 0,0"
         id="path342" />
    </g>
  </g>
</svg>
