<?xml version="1.0" encoding="utf-8"?>
<svg xmlns="http://www.w3.org/2000/svg" xmlns:xlink="http://www.w3.org/1999/xlink" width="600" height="400" viewBox="0 0 2400 1600">
<defs>
  <clipPath id="clip050">
    <rect x="0" y="0" width="2400" height="1600"/>
  </clipPath>
</defs>
<path clip-path="url(#clip050)" d="M0 1600 L2400 1600 L2400 0 L0 0  Z" fill="#ffffff" fill-rule="evenodd" fill-opacity="1"/>
<defs>
  <clipPath id="clip051">
    <rect x="480" y="0" width="1681" height="1600"/>
  </clipPath>
</defs>
<path clip-path="url(#clip050)" d="M186.274 1486.45 L2352.76 1486.45 L2352.76 47.2441 L186.274 47.2441  Z" fill="#ffffff" fill-rule="evenodd" fill-opacity="1"/>
<defs>
  <clipPath id="clip052">
    <rect x="186" y="47" width="2167" height="1440"/>
  </clipPath>
</defs>
<polyline clip-path="url(#clip052)" style="stroke:#000000; stroke-linecap:round; stroke-linejoin:round; stroke-width:2; stroke-opacity:0.1; fill:none" points="247.59,1486.45 247.59,47.2441 "/>
<polyline clip-path="url(#clip052)" style="stroke:#000000; stroke-linecap:round; stroke-linejoin:round; stroke-width:2; stroke-opacity:0.1; fill:none" points="758.552,1486.45 758.552,47.2441 "/>
<polyline clip-path="url(#clip052)" style="stroke:#000000; stroke-linecap:round; stroke-linejoin:round; stroke-width:2; stroke-opacity:0.1; fill:none" points="1269.51,1486.45 1269.51,47.2441 "/>
<polyline clip-path="url(#clip052)" style="stroke:#000000; stroke-linecap:round; stroke-linejoin:round; stroke-width:2; stroke-opacity:0.1; fill:none" points="1780.48,1486.45 1780.48,47.2441 "/>
<polyline clip-path="url(#clip052)" style="stroke:#000000; stroke-linecap:round; stroke-linejoin:round; stroke-width:2; stroke-opacity:0.1; fill:none" points="2291.44,1486.45 2291.44,47.2441 "/>
<polyline clip-path="url(#clip050)" style="stroke:#000000; stroke-linecap:round; stroke-linejoin:round; stroke-width:4; stroke-opacity:1; fill:none" points="186.274,1486.45 2352.76,1486.45 "/>
<polyline clip-path="url(#clip050)" style="stroke:#000000; stroke-linecap:round; stroke-linejoin:round; stroke-width:4; stroke-opacity:1; fill:none" points="247.59,1486.45 247.59,1467.55 "/>
<polyline clip-path="url(#clip050)" style="stroke:#000000; stroke-linecap:round; stroke-linejoin:round; stroke-width:4; stroke-opacity:1; fill:none" points="758.552,1486.45 758.552,1467.55 "/>
<polyline clip-path="url(#clip050)" style="stroke:#000000; stroke-linecap:round; stroke-linejoin:round; stroke-width:4; stroke-opacity:1; fill:none" points="1269.51,1486.45 1269.51,1467.55 "/>
<polyline clip-path="url(#clip050)" style="stroke:#000000; stroke-linecap:round; stroke-linejoin:round; stroke-width:4; stroke-opacity:1; fill:none" points="1780.48,1486.45 1780.48,1467.55 "/>
<polyline clip-path="url(#clip050)" style="stroke:#000000; stroke-linecap:round; stroke-linejoin:round; stroke-width:4; stroke-opacity:1; fill:none" points="2291.44,1486.45 2291.44,1467.55 "/>
<path clip-path="url(#clip050)" d="M209.893 1517.37 Q206.282 1517.37 204.453 1520.93 Q202.648 1524.47 202.648 1531.6 Q202.648 1538.71 204.453 1542.27 Q206.282 1545.82 209.893 1545.82 Q213.527 1545.82 215.333 1542.27 Q217.161 1538.71 217.161 1531.6 Q217.161 1524.47 215.333 1520.93 Q213.527 1517.37 209.893 1517.37 M209.893 1513.66 Q215.703 1513.66 218.759 1518.27 Q221.837 1522.85 221.837 1531.6 Q221.837 1540.33 218.759 1544.94 Q215.703 1549.52 209.893 1549.52 Q204.083 1549.52 201.004 1544.94 Q197.949 1540.33 197.949 1531.6 Q197.949 1522.85 201.004 1518.27 Q204.083 1513.66 209.893 1513.66 Z" fill="#000000" fill-rule="evenodd" fill-opacity="1" /><path clip-path="url(#clip050)" d="M230.055 1542.97 L234.939 1542.97 L234.939 1548.85 L230.055 1548.85 L230.055 1542.97 Z" fill="#000000" fill-rule="evenodd" fill-opacity="1" /><path clip-path="url(#clip050)" d="M255.124 1517.37 Q251.513 1517.37 249.684 1520.93 Q247.879 1524.47 247.879 1531.6 Q247.879 1538.71 249.684 1542.27 Q251.513 1545.82 255.124 1545.82 Q258.758 1545.82 260.564 1542.27 Q262.393 1538.71 262.393 1531.6 Q262.393 1524.47 260.564 1520.93 Q258.758 1517.37 255.124 1517.37 M255.124 1513.66 Q260.934 1513.66 263.99 1518.27 Q267.069 1522.85 267.069 1531.6 Q267.069 1540.33 263.99 1544.94 Q260.934 1549.52 255.124 1549.52 Q249.314 1549.52 246.235 1544.94 Q243.18 1540.33 243.18 1531.6 Q243.18 1522.85 246.235 1518.27 Q249.314 1513.66 255.124 1513.66 Z" fill="#000000" fill-rule="evenodd" fill-opacity="1" /><path clip-path="url(#clip050)" d="M285.286 1517.37 Q281.675 1517.37 279.846 1520.93 Q278.041 1524.47 278.041 1531.6 Q278.041 1538.71 279.846 1542.27 Q281.675 1545.82 285.286 1545.82 Q288.92 1545.82 290.726 1542.27 Q292.555 1538.71 292.555 1531.6 Q292.555 1524.47 290.726 1520.93 Q288.92 1517.37 285.286 1517.37 M285.286 1513.66 Q291.096 1513.66 294.152 1518.27 Q297.23 1522.85 297.23 1531.6 Q297.23 1540.33 294.152 1544.94 Q291.096 1549.52 285.286 1549.52 Q279.476 1549.52 276.397 1544.94 Q273.342 1540.33 273.342 1531.6 Q273.342 1522.85 276.397 1518.27 Q279.476 1513.66 285.286 1513.66 Z" fill="#000000" fill-rule="evenodd" fill-opacity="1" /><path clip-path="url(#clip050)" d="M721.353 1517.37 Q717.742 1517.37 715.914 1520.93 Q714.108 1524.47 714.108 1531.6 Q714.108 1538.71 715.914 1542.27 Q717.742 1545.82 721.353 1545.82 Q724.988 1545.82 726.793 1542.27 Q728.622 1538.71 728.622 1531.6 Q728.622 1524.47 726.793 1520.93 Q724.988 1517.37 721.353 1517.37 M721.353 1513.66 Q727.164 1513.66 730.219 1518.27 Q733.298 1522.85 733.298 1531.6 Q733.298 1540.33 730.219 1544.94 Q727.164 1549.52 721.353 1549.52 Q715.543 1549.52 712.465 1544.94 Q709.409 1540.33 709.409 1531.6 Q709.409 1522.85 712.465 1518.27 Q715.543 1513.66 721.353 1513.66 Z" fill="#000000" fill-rule="evenodd" fill-opacity="1" /><path clip-path="url(#clip050)" d="M741.515 1542.97 L746.4 1542.97 L746.4 1548.85 L741.515 1548.85 L741.515 1542.97 Z" fill="#000000" fill-rule="evenodd" fill-opacity="1" /><path clip-path="url(#clip050)" d="M760.612 1544.91 L776.932 1544.91 L776.932 1548.85 L754.987 1548.85 L754.987 1544.91 Q757.649 1542.16 762.233 1537.53 Q766.839 1532.88 768.02 1531.53 Q770.265 1529.01 771.145 1527.27 Q772.048 1525.51 772.048 1523.82 Q772.048 1521.07 770.103 1519.33 Q768.182 1517.6 765.08 1517.6 Q762.881 1517.6 760.427 1518.36 Q757.997 1519.13 755.219 1520.68 L755.219 1515.95 Q758.043 1514.82 760.497 1514.24 Q762.95 1513.66 764.987 1513.66 Q770.358 1513.66 773.552 1516.35 Q776.747 1519.03 776.747 1523.52 Q776.747 1525.65 775.936 1527.57 Q775.149 1529.47 773.043 1532.07 Q772.464 1532.74 769.362 1535.95 Q766.261 1539.15 760.612 1544.91 Z" fill="#000000" fill-rule="evenodd" fill-opacity="1" /><path clip-path="url(#clip050)" d="M786.793 1514.29 L805.149 1514.29 L805.149 1518.22 L791.075 1518.22 L791.075 1526.7 Q792.094 1526.35 793.112 1526.19 Q794.131 1526 795.149 1526 Q800.936 1526 804.316 1529.17 Q807.695 1532.34 807.695 1537.76 Q807.695 1543.34 804.223 1546.44 Q800.751 1549.52 794.432 1549.52 Q792.256 1549.52 789.987 1549.15 Q787.742 1548.78 785.335 1548.04 L785.335 1543.34 Q787.418 1544.47 789.64 1545.03 Q791.862 1545.58 794.339 1545.58 Q798.344 1545.58 800.682 1543.48 Q803.02 1541.37 803.02 1537.76 Q803.02 1534.15 800.682 1532.04 Q798.344 1529.94 794.339 1529.94 Q792.464 1529.94 790.589 1530.35 Q788.737 1530.77 786.793 1531.65 L786.793 1514.29 Z" fill="#000000" fill-rule="evenodd" fill-opacity="1" /><path clip-path="url(#clip050)" d="M1231.82 1517.37 Q1228.21 1517.37 1226.38 1520.93 Q1224.57 1524.47 1224.57 1531.6 Q1224.57 1538.71 1226.38 1542.27 Q1228.21 1545.82 1231.82 1545.82 Q1235.45 1545.82 1237.26 1542.27 Q1239.09 1538.71 1239.09 1531.6 Q1239.09 1524.47 1237.26 1520.93 Q1235.45 1517.37 1231.82 1517.37 M1231.82 1513.66 Q1237.63 1513.66 1240.68 1518.27 Q1243.76 1522.85 1243.76 1531.6 Q1243.76 1540.33 1240.68 1544.94 Q1237.63 1549.52 1231.82 1549.52 Q1226.01 1549.52 1222.93 1544.94 Q1219.87 1540.33 1219.87 1531.6 Q1219.87 1522.85 1222.93 1518.27 Q1226.01 1513.66 1231.82 1513.66 Z" fill="#000000" fill-rule="evenodd" fill-opacity="1" /><path clip-path="url(#clip050)" d="M1251.98 1542.97 L1256.86 1542.97 L1256.86 1548.85 L1251.98 1548.85 L1251.98 1542.97 Z" fill="#000000" fill-rule="evenodd" fill-opacity="1" /><path clip-path="url(#clip050)" d="M1267.1 1514.29 L1285.45 1514.29 L1285.45 1518.22 L1271.38 1518.22 L1271.38 1526.7 Q1272.4 1526.35 1273.42 1526.19 Q1274.43 1526 1275.45 1526 Q1281.24 1526 1284.62 1529.17 Q1288 1532.34 1288 1537.76 Q1288 1543.34 1284.53 1546.44 Q1281.05 1549.52 1274.73 1549.52 Q1272.56 1549.52 1270.29 1549.15 Q1268.05 1548.78 1265.64 1548.04 L1265.64 1543.34 Q1267.72 1544.47 1269.94 1545.03 Q1272.17 1545.58 1274.64 1545.58 Q1278.65 1545.58 1280.98 1543.48 Q1283.32 1541.37 1283.32 1537.76 Q1283.32 1534.15 1280.98 1532.04 Q1278.65 1529.94 1274.64 1529.94 Q1272.77 1529.94 1270.89 1530.35 Q1269.04 1530.77 1267.1 1531.65 L1267.1 1514.29 Z" fill="#000000" fill-rule="evenodd" fill-opacity="1" /><path clip-path="url(#clip050)" d="M1307.21 1517.37 Q1303.6 1517.37 1301.77 1520.93 Q1299.97 1524.47 1299.97 1531.6 Q1299.97 1538.71 1301.77 1542.27 Q1303.6 1545.82 1307.21 1545.82 Q1310.85 1545.82 1312.65 1542.27 Q1314.48 1538.71 1314.48 1531.6 Q1314.48 1524.47 1312.65 1520.93 Q1310.85 1517.37 1307.21 1517.37 M1307.21 1513.66 Q1313.02 1513.66 1316.08 1518.27 Q1319.16 1522.85 1319.16 1531.6 Q1319.16 1540.33 1316.08 1544.94 Q1313.02 1549.52 1307.21 1549.52 Q1301.4 1549.52 1298.32 1544.94 Q1295.27 1540.33 1295.27 1531.6 Q1295.27 1522.85 1298.32 1518.27 Q1301.4 1513.66 1307.21 1513.66 Z" fill="#000000" fill-rule="evenodd" fill-opacity="1" /><path clip-path="url(#clip050)" d="M1743.28 1517.37 Q1739.67 1517.37 1737.84 1520.93 Q1736.03 1524.47 1736.03 1531.6 Q1736.03 1538.71 1737.84 1542.27 Q1739.67 1545.82 1743.28 1545.82 Q1746.91 1545.82 1748.72 1542.27 Q1750.55 1538.71 1750.55 1531.6 Q1750.55 1524.47 1748.72 1520.93 Q1746.91 1517.37 1743.28 1517.37 M1743.28 1513.66 Q1749.09 1513.66 1752.14 1518.27 Q1755.22 1522.85 1755.22 1531.6 Q1755.22 1540.33 1752.14 1544.94 Q1749.09 1549.52 1743.28 1549.52 Q1737.47 1549.52 1734.39 1544.94 Q1731.33 1540.33 1731.33 1531.6 Q1731.33 1522.85 1734.39 1518.27 Q1737.47 1513.66 1743.28 1513.66 Z" fill="#000000" fill-rule="evenodd" fill-opacity="1" /><path clip-path="url(#clip050)" d="M1763.44 1542.97 L1768.32 1542.97 L1768.32 1548.85 L1763.44 1548.85 L1763.44 1542.97 Z" fill="#000000" fill-rule="evenodd" fill-opacity="1" /><path clip-path="url(#clip050)" d="M1777.33 1514.29 L1799.55 1514.29 L1799.55 1516.28 L1787.01 1548.85 L1782.12 1548.85 L1793.93 1518.22 L1777.33 1518.22 L1777.33 1514.29 Z" fill="#000000" fill-rule="evenodd" fill-opacity="1" /><path clip-path="url(#clip050)" d="M1808.72 1514.29 L1827.07 1514.29 L1827.07 1518.22 L1813 1518.22 L1813 1526.7 Q1814.02 1526.35 1815.04 1526.19 Q1816.06 1526 1817.07 1526 Q1822.86 1526 1826.24 1529.17 Q1829.62 1532.34 1829.62 1537.76 Q1829.62 1543.34 1826.15 1546.44 Q1822.68 1549.52 1816.36 1549.52 Q1814.18 1549.52 1811.91 1549.15 Q1809.67 1548.78 1807.26 1548.04 L1807.26 1543.34 Q1809.34 1544.47 1811.57 1545.03 Q1813.79 1545.58 1816.26 1545.58 Q1820.27 1545.58 1822.61 1543.48 Q1824.95 1541.37 1824.95 1537.76 Q1824.95 1534.15 1822.61 1532.04 Q1820.27 1529.94 1816.26 1529.94 Q1814.39 1529.94 1812.51 1530.35 Q1810.66 1530.77 1808.72 1531.65 L1808.72 1514.29 Z" fill="#000000" fill-rule="evenodd" fill-opacity="1" /><path clip-path="url(#clip050)" d="M2243.51 1544.91 L2251.15 1544.91 L2251.15 1518.55 L2242.84 1520.21 L2242.84 1515.95 L2251.1 1514.29 L2255.78 1514.29 L2255.78 1544.91 L2263.42 1544.91 L2263.42 1548.85 L2243.51 1548.85 L2243.51 1544.91 Z" fill="#000000" fill-rule="evenodd" fill-opacity="1" /><path clip-path="url(#clip050)" d="M2272.86 1542.97 L2277.75 1542.97 L2277.75 1548.85 L2272.86 1548.85 L2272.86 1542.97 Z" fill="#000000" fill-rule="evenodd" fill-opacity="1" /><path clip-path="url(#clip050)" d="M2297.93 1517.37 Q2294.32 1517.37 2292.49 1520.93 Q2290.69 1524.47 2290.69 1531.6 Q2290.69 1538.71 2292.49 1542.27 Q2294.32 1545.82 2297.93 1545.82 Q2301.57 1545.82 2303.37 1542.27 Q2305.2 1538.71 2305.2 1531.6 Q2305.2 1524.47 2303.37 1520.93 Q2301.57 1517.37 2297.93 1517.37 M2297.93 1513.66 Q2303.74 1513.66 2306.8 1518.27 Q2309.88 1522.85 2309.88 1531.6 Q2309.88 1540.33 2306.8 1544.94 Q2303.74 1549.52 2297.93 1549.52 Q2292.12 1549.52 2289.04 1544.94 Q2285.99 1540.33 2285.99 1531.6 Q2285.99 1522.85 2289.04 1518.27 Q2292.12 1513.66 2297.93 1513.66 Z" fill="#000000" fill-rule="evenodd" fill-opacity="1" /><path clip-path="url(#clip050)" d="M2328.1 1517.37 Q2324.48 1517.37 2322.66 1520.93 Q2320.85 1524.47 2320.85 1531.6 Q2320.85 1538.71 2322.66 1542.27 Q2324.48 1545.82 2328.1 1545.82 Q2331.73 1545.82 2333.54 1542.27 Q2335.36 1538.71 2335.36 1531.6 Q2335.36 1524.47 2333.54 1520.93 Q2331.73 1517.37 2328.1 1517.37 M2328.1 1513.66 Q2333.91 1513.66 2336.96 1518.27 Q2340.04 1522.85 2340.04 1531.6 Q2340.04 1540.33 2336.96 1544.94 Q2333.91 1549.52 2328.1 1549.52 Q2322.29 1549.52 2319.21 1544.94 Q2316.15 1540.33 2316.15 1531.6 Q2316.15 1522.85 2319.21 1518.27 Q2322.29 1513.66 2328.1 1513.66 Z" fill="#000000" fill-rule="evenodd" fill-opacity="1" /><polyline clip-path="url(#clip052)" style="stroke:#000000; stroke-linecap:round; stroke-linejoin:round; stroke-width:2; stroke-opacity:0.1; fill:none" points="186.274,1445.59 2352.76,1445.59 "/>
<polyline clip-path="url(#clip052)" style="stroke:#000000; stroke-linecap:round; stroke-linejoin:round; stroke-width:2; stroke-opacity:0.1; fill:none" points="186.274,1106.19 2352.76,1106.19 "/>
<polyline clip-path="url(#clip052)" style="stroke:#000000; stroke-linecap:round; stroke-linejoin:round; stroke-width:2; stroke-opacity:0.1; fill:none" points="186.274,766.785 2352.76,766.785 "/>
<polyline clip-path="url(#clip052)" style="stroke:#000000; stroke-linecap:round; stroke-linejoin:round; stroke-width:2; stroke-opacity:0.1; fill:none" points="186.274,427.381 2352.76,427.381 "/>
<polyline clip-path="url(#clip052)" style="stroke:#000000; stroke-linecap:round; stroke-linejoin:round; stroke-width:2; stroke-opacity:0.1; fill:none" points="186.274,87.9763 2352.76,87.9763 "/>
<polyline clip-path="url(#clip050)" style="stroke:#000000; stroke-linecap:round; stroke-linejoin:round; stroke-width:4; stroke-opacity:1; fill:none" points="186.274,1486.45 186.274,47.2441 "/>
<polyline clip-path="url(#clip050)" style="stroke:#000000; stroke-linecap:round; stroke-linejoin:round; stroke-width:4; stroke-opacity:1; fill:none" points="186.274,1445.59 205.172,1445.59 "/>
<polyline clip-path="url(#clip050)" style="stroke:#000000; stroke-linecap:round; stroke-linejoin:round; stroke-width:4; stroke-opacity:1; fill:none" points="186.274,1106.19 205.172,1106.19 "/>
<polyline clip-path="url(#clip050)" style="stroke:#000000; stroke-linecap:round; stroke-linejoin:round; stroke-width:4; stroke-opacity:1; fill:none" points="186.274,766.785 205.172,766.785 "/>
<polyline clip-path="url(#clip050)" style="stroke:#000000; stroke-linecap:round; stroke-linejoin:round; stroke-width:4; stroke-opacity:1; fill:none" points="186.274,427.381 205.172,427.381 "/>
<polyline clip-path="url(#clip050)" style="stroke:#000000; stroke-linecap:round; stroke-linejoin:round; stroke-width:4; stroke-opacity:1; fill:none" points="186.274,87.9763 205.172,87.9763 "/>
<path clip-path="url(#clip050)" d="M62.9365 1431.39 Q59.3254 1431.39 57.4967 1434.96 Q55.6912 1438.5 55.6912 1445.63 Q55.6912 1452.74 57.4967 1456.3 Q59.3254 1459.84 62.9365 1459.84 Q66.5707 1459.84 68.3763 1456.3 Q70.205 1452.74 70.205 1445.63 Q70.205 1438.5 68.3763 1434.96 Q66.5707 1431.39 62.9365 1431.39 M62.9365 1427.69 Q68.7467 1427.69 71.8022 1432.3 Q74.8809 1436.88 74.8809 1445.63 Q74.8809 1454.36 71.8022 1458.96 Q68.7467 1463.55 62.9365 1463.55 Q57.1264 1463.55 54.0477 1458.96 Q50.9921 1454.36 50.9921 1445.63 Q50.9921 1436.88 54.0477 1432.3 Q57.1264 1427.69 62.9365 1427.69 Z" fill="#000000" fill-rule="evenodd" fill-opacity="1" /><path clip-path="url(#clip050)" d="M83.0984 1456.99 L87.9827 1456.99 L87.9827 1462.87 L83.0984 1462.87 L83.0984 1456.99 Z" fill="#000000" fill-rule="evenodd" fill-opacity="1" /><path clip-path="url(#clip050)" d="M108.168 1431.39 Q104.557 1431.39 102.728 1434.96 Q100.922 1438.5 100.922 1445.63 Q100.922 1452.74 102.728 1456.3 Q104.557 1459.84 108.168 1459.84 Q111.802 1459.84 113.608 1456.3 Q115.436 1452.74 115.436 1445.63 Q115.436 1438.5 113.608 1434.96 Q111.802 1431.39 108.168 1431.39 M108.168 1427.69 Q113.978 1427.69 117.033 1432.3 Q120.112 1436.88 120.112 1445.63 Q120.112 1454.36 117.033 1458.96 Q113.978 1463.55 108.168 1463.55 Q102.358 1463.55 99.2789 1458.96 Q96.2234 1454.36 96.2234 1445.63 Q96.2234 1436.88 99.2789 1432.3 Q102.358 1427.69 108.168 1427.69 Z" fill="#000000" fill-rule="evenodd" fill-opacity="1" /><path clip-path="url(#clip050)" d="M138.33 1431.39 Q134.719 1431.39 132.89 1434.96 Q131.084 1438.5 131.084 1445.63 Q131.084 1452.74 132.89 1456.3 Q134.719 1459.84 138.33 1459.84 Q141.964 1459.84 143.769 1456.3 Q145.598 1452.74 145.598 1445.63 Q145.598 1438.5 143.769 1434.96 Q141.964 1431.39 138.33 1431.39 M138.33 1427.69 Q144.14 1427.69 147.195 1432.3 Q150.274 1436.88 150.274 1445.63 Q150.274 1454.36 147.195 1458.96 Q144.14 1463.55 138.33 1463.55 Q132.519 1463.55 129.441 1458.96 Q126.385 1454.36 126.385 1445.63 Q126.385 1436.88 129.441 1432.3 Q132.519 1427.69 138.33 1427.69 Z" fill="#000000" fill-rule="evenodd" fill-opacity="1" /><path clip-path="url(#clip050)" d="M63.9319 1091.99 Q60.3208 1091.99 58.4921 1095.55 Q56.6865 1099.09 56.6865 1106.22 Q56.6865 1113.33 58.4921 1116.9 Q60.3208 1120.44 63.9319 1120.44 Q67.5661 1120.44 69.3717 1116.9 Q71.2004 1113.33 71.2004 1106.22 Q71.2004 1099.09 69.3717 1095.55 Q67.5661 1091.99 63.9319 1091.99 M63.9319 1088.28 Q69.742 1088.28 72.7976 1092.89 Q75.8763 1097.47 75.8763 1106.22 Q75.8763 1114.95 72.7976 1119.56 Q69.742 1124.14 63.9319 1124.14 Q58.1217 1124.14 55.043 1119.56 Q51.9875 1114.95 51.9875 1106.22 Q51.9875 1097.47 55.043 1092.89 Q58.1217 1088.28 63.9319 1088.28 Z" fill="#000000" fill-rule="evenodd" fill-opacity="1" /><path clip-path="url(#clip050)" d="M84.0938 1117.59 L88.978 1117.59 L88.978 1123.47 L84.0938 1123.47 L84.0938 1117.59 Z" fill="#000000" fill-rule="evenodd" fill-opacity="1" /><path clip-path="url(#clip050)" d="M103.191 1119.53 L119.51 1119.53 L119.51 1123.47 L97.566 1123.47 L97.566 1119.53 Q100.228 1116.78 104.811 1112.15 Q109.418 1107.5 110.598 1106.15 Q112.844 1103.63 113.723 1101.9 Q114.626 1100.14 114.626 1098.45 Q114.626 1095.69 112.682 1093.96 Q110.76 1092.22 107.658 1092.22 Q105.459 1092.22 103.006 1092.98 Q100.575 1093.75 97.7974 1095.3 L97.7974 1090.58 Q100.621 1089.44 103.075 1088.86 Q105.529 1088.28 107.566 1088.28 Q112.936 1088.28 116.131 1090.97 Q119.325 1093.65 119.325 1098.15 Q119.325 1100.28 118.515 1102.2 Q117.728 1104.09 115.621 1106.69 Q115.043 1107.36 111.941 1110.58 Q108.839 1113.77 103.191 1119.53 Z" fill="#000000" fill-rule="evenodd" fill-opacity="1" /><path clip-path="url(#clip050)" d="M129.371 1088.91 L147.728 1088.91 L147.728 1092.84 L133.654 1092.84 L133.654 1101.32 Q134.672 1100.97 135.691 1100.81 Q136.709 1100.62 137.728 1100.62 Q143.515 1100.62 146.894 1103.79 Q150.274 1106.97 150.274 1112.38 Q150.274 1117.96 146.802 1121.06 Q143.33 1124.14 137.01 1124.14 Q134.834 1124.14 132.566 1123.77 Q130.32 1123.4 127.913 1122.66 L127.913 1117.96 Q129.996 1119.09 132.219 1119.65 Q134.441 1120.21 136.918 1120.21 Q140.922 1120.21 143.26 1118.1 Q145.598 1115.99 145.598 1112.38 Q145.598 1108.77 143.26 1106.66 Q140.922 1104.56 136.918 1104.56 Q135.043 1104.56 133.168 1104.97 Q131.316 1105.39 129.371 1106.27 L129.371 1088.91 Z" fill="#000000" fill-rule="evenodd" fill-opacity="1" /><path clip-path="url(#clip050)" d="M62.9365 752.584 Q59.3254 752.584 57.4967 756.149 Q55.6912 759.69 55.6912 766.82 Q55.6912 773.926 57.4967 777.491 Q59.3254 781.033 62.9365 781.033 Q66.5707 781.033 68.3763 777.491 Q70.205 773.926 70.205 766.82 Q70.205 759.69 68.3763 756.149 Q66.5707 752.584 62.9365 752.584 M62.9365 748.88 Q68.7467 748.88 71.8022 753.487 Q74.8809 758.07 74.8809 766.82 Q74.8809 775.547 71.8022 780.153 Q68.7467 784.736 62.9365 784.736 Q57.1264 784.736 54.0477 780.153 Q50.9921 775.547 50.9921 766.82 Q50.9921 758.07 54.0477 753.487 Q57.1264 748.88 62.9365 748.88 Z" fill="#000000" fill-rule="evenodd" fill-opacity="1" /><path clip-path="url(#clip050)" d="M83.0984 778.186 L87.9827 778.186 L87.9827 784.065 L83.0984 784.065 L83.0984 778.186 Z" fill="#000000" fill-rule="evenodd" fill-opacity="1" /><path clip-path="url(#clip050)" d="M98.2141 749.505 L116.57 749.505 L116.57 753.44 L102.496 753.44 L102.496 761.913 Q103.515 761.565 104.534 761.403 Q105.552 761.218 106.571 761.218 Q112.358 761.218 115.737 764.389 Q119.117 767.561 119.117 772.977 Q119.117 778.556 115.645 781.658 Q112.172 784.736 105.853 784.736 Q103.677 784.736 101.409 784.366 Q99.1632 783.996 96.7558 783.255 L96.7558 778.556 Q98.8391 779.69 101.061 780.246 Q103.284 780.801 105.76 780.801 Q109.765 780.801 112.103 778.695 Q114.441 776.588 114.441 772.977 Q114.441 769.366 112.103 767.26 Q109.765 765.153 105.76 765.153 Q103.885 765.153 102.01 765.57 Q100.159 765.987 98.2141 766.866 L98.2141 749.505 Z" fill="#000000" fill-rule="evenodd" fill-opacity="1" /><path clip-path="url(#clip050)" d="M138.33 752.584 Q134.719 752.584 132.89 756.149 Q131.084 759.69 131.084 766.82 Q131.084 773.926 132.89 777.491 Q134.719 781.033 138.33 781.033 Q141.964 781.033 143.769 777.491 Q145.598 773.926 145.598 766.82 Q145.598 759.69 143.769 756.149 Q141.964 752.584 138.33 752.584 M138.33 748.88 Q144.14 748.88 147.195 753.487 Q150.274 758.07 150.274 766.82 Q150.274 775.547 147.195 780.153 Q144.14 784.736 138.33 784.736 Q132.519 784.736 129.441 780.153 Q126.385 775.547 126.385 766.82 Q126.385 758.07 129.441 753.487 Q132.519 748.88 138.33 748.88 Z" fill="#000000" fill-rule="evenodd" fill-opacity="1" /><path clip-path="url(#clip050)" d="M63.9319 413.179 Q60.3208 413.179 58.4921 416.744 Q56.6865 420.286 56.6865 427.415 Q56.6865 434.522 58.4921 438.087 Q60.3208 441.628 63.9319 441.628 Q67.5661 441.628 69.3717 438.087 Q71.2004 434.522 71.2004 427.415 Q71.2004 420.286 69.3717 416.744 Q67.5661 413.179 63.9319 413.179 M63.9319 409.476 Q69.742 409.476 72.7976 414.082 Q75.8763 418.665 75.8763 427.415 Q75.8763 436.142 72.7976 440.749 Q69.742 445.332 63.9319 445.332 Q58.1217 445.332 55.043 440.749 Q51.9875 436.142 51.9875 427.415 Q51.9875 418.665 55.043 414.082 Q58.1217 409.476 63.9319 409.476 Z" fill="#000000" fill-rule="evenodd" fill-opacity="1" /><path clip-path="url(#clip050)" d="M84.0938 438.781 L88.978 438.781 L88.978 444.661 L84.0938 444.661 L84.0938 438.781 Z" fill="#000000" fill-rule="evenodd" fill-opacity="1" /><path clip-path="url(#clip050)" d="M97.9826 410.101 L120.205 410.101 L120.205 412.091 L107.658 444.661 L102.774 444.661 L114.58 414.036 L97.9826 414.036 L97.9826 410.101 Z" fill="#000000" fill-rule="evenodd" fill-opacity="1" /><path clip-path="url(#clip050)" d="M129.371 410.101 L147.728 410.101 L147.728 414.036 L133.654 414.036 L133.654 422.508 Q134.672 422.161 135.691 421.999 Q136.709 421.814 137.728 421.814 Q143.515 421.814 146.894 424.985 Q150.274 428.156 150.274 433.573 Q150.274 439.151 146.802 442.253 Q143.33 445.332 137.01 445.332 Q134.834 445.332 132.566 444.962 Q130.32 444.591 127.913 443.851 L127.913 439.151 Q129.996 440.286 132.219 440.841 Q134.441 441.397 136.918 441.397 Q140.922 441.397 143.26 439.29 Q145.598 437.184 145.598 433.573 Q145.598 429.962 143.26 427.855 Q140.922 425.749 136.918 425.749 Q135.043 425.749 133.168 426.165 Q131.316 426.582 129.371 427.462 L129.371 410.101 Z" fill="#000000" fill-rule="evenodd" fill-opacity="1" /><path clip-path="url(#clip050)" d="M53.7467 101.321 L61.3856 101.321 L61.3856 74.9555 L53.0754 76.6222 L53.0754 72.3629 L61.3393 70.6963 L66.0152 70.6963 L66.0152 101.321 L73.654 101.321 L73.654 105.256 L53.7467 105.256 L53.7467 101.321 Z" fill="#000000" fill-rule="evenodd" fill-opacity="1" /><path clip-path="url(#clip050)" d="M83.0984 99.3767 L87.9827 99.3767 L87.9827 105.256 L83.0984 105.256 L83.0984 99.3767 Z" fill="#000000" fill-rule="evenodd" fill-opacity="1" /><path clip-path="url(#clip050)" d="M108.168 73.775 Q104.557 73.775 102.728 77.3398 Q100.922 80.8814 100.922 88.011 Q100.922 95.1174 102.728 98.6822 Q104.557 102.224 108.168 102.224 Q111.802 102.224 113.608 98.6822 Q115.436 95.1174 115.436 88.011 Q115.436 80.8814 113.608 77.3398 Q111.802 73.775 108.168 73.775 M108.168 70.0713 Q113.978 70.0713 117.033 74.6777 Q120.112 79.261 120.112 88.011 Q120.112 96.7378 117.033 101.344 Q113.978 105.928 108.168 105.928 Q102.358 105.928 99.2789 101.344 Q96.2234 96.7378 96.2234 88.011 Q96.2234 79.261 99.2789 74.6777 Q102.358 70.0713 108.168 70.0713 Z" fill="#000000" fill-rule="evenodd" fill-opacity="1" /><path clip-path="url(#clip050)" d="M138.33 73.775 Q134.719 73.775 132.89 77.3398 Q131.084 80.8814 131.084 88.011 Q131.084 95.1174 132.89 98.6822 Q134.719 102.224 138.33 102.224 Q141.964 102.224 143.769 98.6822 Q145.598 95.1174 145.598 88.011 Q145.598 80.8814 143.769 77.3398 Q141.964 73.775 138.33 73.775 M138.33 70.0713 Q144.14 70.0713 147.195 74.6777 Q150.274 79.261 150.274 88.011 Q150.274 96.7378 147.195 101.344 Q144.14 105.928 138.33 105.928 Q132.519 105.928 129.441 101.344 Q126.385 96.7378 126.385 88.011 Q126.385 79.261 129.441 74.6777 Q132.519 70.0713 138.33 70.0713 Z" fill="#000000" fill-rule="evenodd" fill-opacity="1" /><circle clip-path="url(#clip052)" cx="247.59" cy="87.9763" r="14.4" fill="#009af9" fill-rule="evenodd" fill-opacity="1" stroke="#000000" stroke-opacity="1" stroke-width="3.2"/>
<circle clip-path="url(#clip052)" cx="451.975" cy="230.433" r="14.4" fill="#009af9" fill-rule="evenodd" fill-opacity="1" stroke="#000000" stroke-opacity="1" stroke-width="3.2"/>
<circle clip-path="url(#clip052)" cx="656.36" cy="384.682" r="14.4" fill="#009af9" fill-rule="evenodd" fill-opacity="1" stroke="#000000" stroke-opacity="1" stroke-width="3.2"/>
<circle clip-path="url(#clip052)" cx="860.745" cy="548.134" r="14.4" fill="#009af9" fill-rule="evenodd" fill-opacity="1" stroke="#000000" stroke-opacity="1" stroke-width="3.2"/>
<circle clip-path="url(#clip052)" cx="1065.13" cy="717.154" r="14.4" fill="#009af9" fill-rule="evenodd" fill-opacity="1" stroke="#000000" stroke-opacity="1" stroke-width="3.2"/>
<circle clip-path="url(#clip052)" cx="1269.51" cy="886.831" r="14.4" fill="#009af9" fill-rule="evenodd" fill-opacity="1" stroke="#000000" stroke-opacity="1" stroke-width="3.2"/>
<circle clip-path="url(#clip052)" cx="1473.9" cy="1050.71" r="14.4" fill="#009af9" fill-rule="evenodd" fill-opacity="1" stroke="#000000" stroke-opacity="1" stroke-width="3.2"/>
<circle clip-path="url(#clip052)" cx="1678.29" cy="1200.48" r="14.4" fill="#009af9" fill-rule="evenodd" fill-opacity="1" stroke="#000000" stroke-opacity="1" stroke-width="3.2"/>
<circle clip-path="url(#clip052)" cx="1882.67" cy="1325.59" r="14.4" fill="#009af9" fill-rule="evenodd" fill-opacity="1" stroke="#000000" stroke-opacity="1" stroke-width="3.2"/>
<circle clip-path="url(#clip052)" cx="2087.06" cy="1412.8" r="14.4" fill="#009af9" fill-rule="evenodd" fill-opacity="1" stroke="#000000" stroke-opacity="1" stroke-width="3.2"/>
<circle clip-path="url(#clip052)" cx="2291.44" cy="1445.72" r="14.4" fill="#009af9" fill-rule="evenodd" fill-opacity="1" stroke="#000000" stroke-opacity="1" stroke-width="3.2"/>
<polyline clip-path="url(#clip052)" style="stroke:#e26f46; stroke-linecap:round; stroke-linejoin:round; stroke-width:4; stroke-opacity:1; fill:none" points="247.59,87.9763 260.896,96.8438 383.935,181.491 457.876,234.564 520.392,280.644 588.302,331.873 650.909,380.105 718.031,432.789 795.798,494.94 864.908,551.022 925.511,600.731 991.585,655.353 1058.05,710.584 1131.54,771.764 1201.46,829.846 1274.16,889.826 1335.36,939.762 1410.08,999.729 1478.52,1053.37 1541.74,1101.52 1605.77,1148.63 1677.54,1199.03 1742.57,1242.13 1779.8,1265.55 1817.03,1287.95 1851.5,1307.72 1885.97,1326.49 1919.95,1343.94 1953.93,1360.28 1986.93,1375.01 2019.92,1388.57 2053.75,1401.16 2087.57,1412.36 2124.63,1422.94 2161.69,1431.64 2188.6,1436.71 2215.52,1440.69 2242.44,1443.52 2269.35,1445.17 2274.87,1445.35 2280.4,1445.49 2285.92,1445.57 2291.44,1445.59 "/>
<path clip-path="url(#clip050)" d="M2011.46 250.738 L2280.54 250.738 L2280.54 95.2176 L2011.46 95.2176  Z" fill="#ffffff" fill-rule="evenodd" fill-opacity="1"/>
<polyline clip-path="url(#clip050)" style="stroke:#000000; stroke-linecap:round; stroke-linejoin:round; stroke-width:4; stroke-opacity:1; fill:none" points="2011.46,250.738 2280.54,250.738 2280.54,95.2176 2011.46,95.2176 2011.46,250.738 "/>
<circle clip-path="url(#clip050)" cx="2107.75" cy="147.058" r="23.04" fill="#009af9" fill-rule="evenodd" fill-opacity="1" stroke="#000000" stroke-opacity="1" stroke-width="5.12"/>
<path clip-path="url(#clip050)" d="M2217.88 166.745 Q2216.07 171.375 2214.36 172.787 Q2212.65 174.199 2209.78 174.199 L2206.38 174.199 L2206.38 170.634 L2208.88 170.634 Q2210.63 170.634 2211.61 169.8 Q2212.58 168.967 2213.76 165.865 L2214.52 163.921 L2204.04 138.412 L2208.55 138.412 L2216.65 158.689 L2224.76 138.412 L2229.27 138.412 L2217.88 166.745 Z" fill="#000000" fill-rule="evenodd" fill-opacity="1" /><path clip-path="url(#clip050)" d="M2236.56 160.402 L2244.2 160.402 L2244.2 134.037 L2235.89 135.703 L2235.89 131.444 L2244.15 129.778 L2248.83 129.778 L2248.83 160.402 L2256.47 160.402 L2256.47 164.338 L2236.56 164.338 L2236.56 160.402 Z" fill="#000000" fill-rule="evenodd" fill-opacity="1" /><polyline clip-path="url(#clip050)" style="stroke:#e26f46; stroke-linecap:round; stroke-linejoin:round; stroke-width:4; stroke-opacity:1; fill:none" points="2035.53,198.898 2179.97,198.898 "/>
<path clip-path="url(#clip050)" d="M2217.88 218.585 Q2216.07 223.215 2214.36 224.627 Q2212.65 226.039 2209.78 226.039 L2206.38 226.039 L2206.38 222.474 L2208.88 222.474 Q2210.63 222.474 2211.61 221.64 Q2212.58 220.807 2213.76 217.705 L2214.52 215.761 L2204.04 190.252 L2208.55 190.252 L2216.65 210.529 L2224.76 190.252 L2229.27 190.252 L2217.88 218.585 Z" fill="#000000" fill-rule="evenodd" fill-opacity="1" /><path clip-path="url(#clip050)" d="M2239.78 212.242 L2256.1 212.242 L2256.1 216.178 L2234.15 216.178 L2234.15 212.242 Q2236.82 209.488 2241.4 204.858 Q2246 200.205 2247.19 198.863 Q2249.43 196.34 2250.31 194.604 Q2251.21 192.844 2251.21 191.155 Q2251.21 188.4 2249.27 186.664 Q2247.35 184.928 2244.25 184.928 Q2242.05 184.928 2239.59 185.692 Q2237.16 186.455 2234.38 188.006 L2234.38 183.284 Q2237.21 182.15 2239.66 181.571 Q2242.12 180.993 2244.15 180.993 Q2249.52 180.993 2252.72 183.678 Q2255.91 186.363 2255.91 190.854 Q2255.91 192.983 2255.1 194.905 Q2254.32 196.803 2252.21 199.395 Q2251.63 200.067 2248.53 203.284 Q2245.43 206.479 2239.78 212.242 Z" fill="#000000" fill-rule="evenodd" fill-opacity="1" /></svg>
