<?xml version="1.0" encoding="utf-8"?>
<svg xmlns="http://www.w3.org/2000/svg" xmlns:xlink="http://www.w3.org/1999/xlink" width="600" height="400" viewBox="0 0 2400 1600">
<defs>
  <clipPath id="clip990">
    <rect x="0" y="0" width="2400" height="1600"/>
  </clipPath>
</defs>
<path clip-path="url(#clip990)" d="M0 1600 L2400 1600 L2400 0 L0 0  Z" fill="#ffffff" fill-rule="evenodd" fill-opacity="1"/>
<defs>
  <clipPath id="clip991">
    <rect x="480" y="0" width="1681" height="1600"/>
  </clipPath>
</defs>
<path clip-path="url(#clip990)" d="M193.936 1486.45 L2352.76 1486.45 L2352.76 47.2441 L193.936 47.2441  Z" fill="#ffffff" fill-rule="evenodd" fill-opacity="1"/>
<defs>
  <clipPath id="clip992">
    <rect x="193" y="47" width="2160" height="1440"/>
  </clipPath>
</defs>
<polyline clip-path="url(#clip992)" style="stroke:#000000; stroke-linecap:round; stroke-linejoin:round; stroke-width:2; stroke-opacity:0.1; fill:none" points="255.035,1486.45 255.035,47.2441 "/>
<polyline clip-path="url(#clip992)" style="stroke:#000000; stroke-linecap:round; stroke-linejoin:round; stroke-width:2; stroke-opacity:0.1; fill:none" points="764.19,1486.45 764.19,47.2441 "/>
<polyline clip-path="url(#clip992)" style="stroke:#000000; stroke-linecap:round; stroke-linejoin:round; stroke-width:2; stroke-opacity:0.1; fill:none" points="1273.35,1486.45 1273.35,47.2441 "/>
<polyline clip-path="url(#clip992)" style="stroke:#000000; stroke-linecap:round; stroke-linejoin:round; stroke-width:2; stroke-opacity:0.1; fill:none" points="1782.5,1486.45 1782.5,47.2441 "/>
<polyline clip-path="url(#clip992)" style="stroke:#000000; stroke-linecap:round; stroke-linejoin:round; stroke-width:2; stroke-opacity:0.1; fill:none" points="2291.66,1486.45 2291.66,47.2441 "/>
<polyline clip-path="url(#clip990)" style="stroke:#000000; stroke-linecap:round; stroke-linejoin:round; stroke-width:4; stroke-opacity:1; fill:none" points="193.936,1486.45 2352.76,1486.45 "/>
<polyline clip-path="url(#clip990)" style="stroke:#000000; stroke-linecap:round; stroke-linejoin:round; stroke-width:4; stroke-opacity:1; fill:none" points="255.035,1486.45 255.035,1467.55 "/>
<polyline clip-path="url(#clip990)" style="stroke:#000000; stroke-linecap:round; stroke-linejoin:round; stroke-width:4; stroke-opacity:1; fill:none" points="764.19,1486.45 764.19,1467.55 "/>
<polyline clip-path="url(#clip990)" style="stroke:#000000; stroke-linecap:round; stroke-linejoin:round; stroke-width:4; stroke-opacity:1; fill:none" points="1273.35,1486.45 1273.35,1467.55 "/>
<polyline clip-path="url(#clip990)" style="stroke:#000000; stroke-linecap:round; stroke-linejoin:round; stroke-width:4; stroke-opacity:1; fill:none" points="1782.5,1486.45 1782.5,1467.55 "/>
<polyline clip-path="url(#clip990)" style="stroke:#000000; stroke-linecap:round; stroke-linejoin:round; stroke-width:4; stroke-opacity:1; fill:none" points="2291.66,1486.45 2291.66,1467.55 "/>
<path clip-path="url(#clip990)" d="M217.338 1517.37 Q213.727 1517.37 211.898 1520.93 Q210.093 1524.47 210.093 1531.6 Q210.093 1538.71 211.898 1542.27 Q213.727 1545.82 217.338 1545.82 Q220.972 1545.82 222.778 1542.27 Q224.607 1538.71 224.607 1531.6 Q224.607 1524.47 222.778 1520.93 Q220.972 1517.37 217.338 1517.37 M217.338 1513.66 Q223.148 1513.66 226.204 1518.27 Q229.282 1522.85 229.282 1531.6 Q229.282 1540.33 226.204 1544.94 Q223.148 1549.52 217.338 1549.52 Q211.528 1549.52 208.449 1544.94 Q205.394 1540.33 205.394 1531.6 Q205.394 1522.85 208.449 1518.27 Q211.528 1513.66 217.338 1513.66 Z" fill="#000000" fill-rule="evenodd" fill-opacity="1" /><path clip-path="url(#clip990)" d="M237.5 1542.97 L242.384 1542.97 L242.384 1548.85 L237.5 1548.85 L237.5 1542.97 Z" fill="#000000" fill-rule="evenodd" fill-opacity="1" /><path clip-path="url(#clip990)" d="M262.569 1517.37 Q258.958 1517.37 257.13 1520.93 Q255.324 1524.47 255.324 1531.6 Q255.324 1538.71 257.13 1542.27 Q258.958 1545.82 262.569 1545.82 Q266.204 1545.82 268.009 1542.27 Q269.838 1538.71 269.838 1531.6 Q269.838 1524.47 268.009 1520.93 Q266.204 1517.37 262.569 1517.37 M262.569 1513.66 Q268.38 1513.66 271.435 1518.27 Q274.514 1522.85 274.514 1531.6 Q274.514 1540.33 271.435 1544.94 Q268.38 1549.52 262.569 1549.52 Q256.759 1549.52 253.681 1544.94 Q250.625 1540.33 250.625 1531.6 Q250.625 1522.85 253.681 1518.27 Q256.759 1513.66 262.569 1513.66 Z" fill="#000000" fill-rule="evenodd" fill-opacity="1" /><path clip-path="url(#clip990)" d="M292.731 1517.37 Q289.12 1517.37 287.291 1520.93 Q285.486 1524.47 285.486 1531.6 Q285.486 1538.71 287.291 1542.27 Q289.12 1545.82 292.731 1545.82 Q296.365 1545.82 298.171 1542.27 Q300 1538.71 300 1531.6 Q300 1524.47 298.171 1520.93 Q296.365 1517.37 292.731 1517.37 M292.731 1513.66 Q298.541 1513.66 301.597 1518.27 Q304.676 1522.85 304.676 1531.6 Q304.676 1540.33 301.597 1544.94 Q298.541 1549.52 292.731 1549.52 Q286.921 1549.52 283.842 1544.94 Q280.787 1540.33 280.787 1531.6 Q280.787 1522.85 283.842 1518.27 Q286.921 1513.66 292.731 1513.66 Z" fill="#000000" fill-rule="evenodd" fill-opacity="1" /><path clip-path="url(#clip990)" d="M726.991 1517.37 Q723.38 1517.37 721.552 1520.93 Q719.746 1524.47 719.746 1531.6 Q719.746 1538.71 721.552 1542.27 Q723.38 1545.82 726.991 1545.82 Q730.626 1545.82 732.431 1542.27 Q734.26 1538.71 734.26 1531.6 Q734.26 1524.47 732.431 1520.93 Q730.626 1517.37 726.991 1517.37 M726.991 1513.66 Q732.802 1513.66 735.857 1518.27 Q738.936 1522.85 738.936 1531.6 Q738.936 1540.33 735.857 1544.94 Q732.802 1549.52 726.991 1549.52 Q721.181 1549.52 718.103 1544.94 Q715.047 1540.33 715.047 1531.6 Q715.047 1522.85 718.103 1518.27 Q721.181 1513.66 726.991 1513.66 Z" fill="#000000" fill-rule="evenodd" fill-opacity="1" /><path clip-path="url(#clip990)" d="M747.153 1542.97 L752.038 1542.97 L752.038 1548.85 L747.153 1548.85 L747.153 1542.97 Z" fill="#000000" fill-rule="evenodd" fill-opacity="1" /><path clip-path="url(#clip990)" d="M766.25 1544.91 L782.57 1544.91 L782.57 1548.85 L760.626 1548.85 L760.626 1544.91 Q763.288 1542.16 767.871 1537.53 Q772.477 1532.88 773.658 1531.53 Q775.903 1529.01 776.783 1527.27 Q777.686 1525.51 777.686 1523.82 Q777.686 1521.07 775.741 1519.33 Q773.82 1517.6 770.718 1517.6 Q768.519 1517.6 766.065 1518.36 Q763.635 1519.13 760.857 1520.68 L760.857 1515.95 Q763.681 1514.82 766.135 1514.24 Q768.588 1513.66 770.625 1513.66 Q775.996 1513.66 779.19 1516.35 Q782.385 1519.03 782.385 1523.52 Q782.385 1525.65 781.574 1527.57 Q780.787 1529.47 778.681 1532.07 Q778.102 1532.74 775 1535.95 Q771.899 1539.15 766.25 1544.91 Z" fill="#000000" fill-rule="evenodd" fill-opacity="1" /><path clip-path="url(#clip990)" d="M792.431 1514.29 L810.787 1514.29 L810.787 1518.22 L796.713 1518.22 L796.713 1526.7 Q797.732 1526.35 798.75 1526.19 Q799.769 1526 800.787 1526 Q806.574 1526 809.954 1529.17 Q813.334 1532.34 813.334 1537.76 Q813.334 1543.34 809.861 1546.44 Q806.389 1549.52 800.07 1549.52 Q797.894 1549.52 795.625 1549.15 Q793.38 1548.78 790.973 1548.04 L790.973 1543.34 Q793.056 1544.47 795.278 1545.03 Q797.5 1545.58 799.977 1545.58 Q803.982 1545.58 806.32 1543.48 Q808.658 1541.37 808.658 1537.76 Q808.658 1534.15 806.32 1532.04 Q803.982 1529.94 799.977 1529.94 Q798.102 1529.94 796.227 1530.35 Q794.375 1530.77 792.431 1531.65 L792.431 1514.29 Z" fill="#000000" fill-rule="evenodd" fill-opacity="1" /><path clip-path="url(#clip990)" d="M1235.65 1517.37 Q1232.04 1517.37 1230.21 1520.93 Q1228.4 1524.47 1228.4 1531.6 Q1228.4 1538.71 1230.21 1542.27 Q1232.04 1545.82 1235.65 1545.82 Q1239.28 1545.82 1241.09 1542.27 Q1242.92 1538.71 1242.92 1531.6 Q1242.92 1524.47 1241.09 1520.93 Q1239.28 1517.37 1235.65 1517.37 M1235.65 1513.66 Q1241.46 1513.66 1244.52 1518.27 Q1247.59 1522.85 1247.59 1531.6 Q1247.59 1540.33 1244.52 1544.94 Q1241.46 1549.52 1235.65 1549.52 Q1229.84 1549.52 1226.76 1544.94 Q1223.71 1540.33 1223.71 1531.6 Q1223.71 1522.85 1226.76 1518.27 Q1229.84 1513.66 1235.65 1513.66 Z" fill="#000000" fill-rule="evenodd" fill-opacity="1" /><path clip-path="url(#clip990)" d="M1255.81 1542.97 L1260.7 1542.97 L1260.7 1548.85 L1255.81 1548.85 L1255.81 1542.97 Z" fill="#000000" fill-rule="evenodd" fill-opacity="1" /><path clip-path="url(#clip990)" d="M1270.93 1514.29 L1289.28 1514.29 L1289.28 1518.22 L1275.21 1518.22 L1275.21 1526.7 Q1276.23 1526.35 1277.25 1526.19 Q1278.26 1526 1279.28 1526 Q1285.07 1526 1288.45 1529.17 Q1291.83 1532.34 1291.83 1537.76 Q1291.83 1543.34 1288.36 1546.44 Q1284.89 1549.52 1278.57 1549.52 Q1276.39 1549.52 1274.12 1549.15 Q1271.88 1548.78 1269.47 1548.04 L1269.47 1543.34 Q1271.55 1544.47 1273.77 1545.03 Q1276 1545.58 1278.47 1545.58 Q1282.48 1545.58 1284.82 1543.48 Q1287.15 1541.37 1287.15 1537.76 Q1287.15 1534.15 1284.82 1532.04 Q1282.48 1529.94 1278.47 1529.94 Q1276.6 1529.94 1274.72 1530.35 Q1272.87 1530.77 1270.93 1531.65 L1270.93 1514.29 Z" fill="#000000" fill-rule="evenodd" fill-opacity="1" /><path clip-path="url(#clip990)" d="M1311.04 1517.37 Q1307.43 1517.37 1305.6 1520.93 Q1303.8 1524.47 1303.8 1531.6 Q1303.8 1538.71 1305.6 1542.27 Q1307.43 1545.82 1311.04 1545.82 Q1314.68 1545.82 1316.48 1542.27 Q1318.31 1538.71 1318.31 1531.6 Q1318.31 1524.47 1316.48 1520.93 Q1314.68 1517.37 1311.04 1517.37 M1311.04 1513.66 Q1316.85 1513.66 1319.91 1518.27 Q1322.99 1522.85 1322.99 1531.6 Q1322.99 1540.33 1319.91 1544.94 Q1316.85 1549.52 1311.04 1549.52 Q1305.23 1549.52 1302.15 1544.94 Q1299.1 1540.33 1299.1 1531.6 Q1299.1 1522.85 1302.15 1518.27 Q1305.23 1513.66 1311.04 1513.66 Z" fill="#000000" fill-rule="evenodd" fill-opacity="1" /><path clip-path="url(#clip990)" d="M1745.3 1517.37 Q1741.69 1517.37 1739.86 1520.93 Q1738.06 1524.47 1738.06 1531.6 Q1738.06 1538.71 1739.86 1542.27 Q1741.69 1545.82 1745.3 1545.82 Q1748.94 1545.82 1750.74 1542.27 Q1752.57 1538.71 1752.57 1531.6 Q1752.57 1524.47 1750.74 1520.93 Q1748.94 1517.37 1745.3 1517.37 M1745.3 1513.66 Q1751.11 1513.66 1754.17 1518.27 Q1757.25 1522.85 1757.25 1531.6 Q1757.25 1540.33 1754.17 1544.94 Q1751.11 1549.52 1745.3 1549.52 Q1739.49 1549.52 1736.41 1544.94 Q1733.36 1540.33 1733.36 1531.6 Q1733.36 1522.85 1736.41 1518.27 Q1739.49 1513.66 1745.3 1513.66 Z" fill="#000000" fill-rule="evenodd" fill-opacity="1" /><path clip-path="url(#clip990)" d="M1765.46 1542.97 L1770.35 1542.97 L1770.35 1548.85 L1765.46 1548.85 L1765.46 1542.97 Z" fill="#000000" fill-rule="evenodd" fill-opacity="1" /><path clip-path="url(#clip990)" d="M1779.35 1514.29 L1801.58 1514.29 L1801.58 1516.28 L1789.03 1548.85 L1784.15 1548.85 L1795.95 1518.22 L1779.35 1518.22 L1779.35 1514.29 Z" fill="#000000" fill-rule="evenodd" fill-opacity="1" /><path clip-path="url(#clip990)" d="M1810.74 1514.29 L1829.1 1514.29 L1829.1 1518.22 L1815.02 1518.22 L1815.02 1526.7 Q1816.04 1526.35 1817.06 1526.19 Q1818.08 1526 1819.1 1526 Q1824.89 1526 1828.27 1529.17 Q1831.64 1532.34 1831.64 1537.76 Q1831.64 1543.34 1828.17 1546.44 Q1824.7 1549.52 1818.38 1549.52 Q1816.21 1549.52 1813.94 1549.15 Q1811.69 1548.78 1809.28 1548.04 L1809.28 1543.34 Q1811.37 1544.47 1813.59 1545.03 Q1815.81 1545.58 1818.29 1545.58 Q1822.29 1545.58 1824.63 1543.48 Q1826.97 1541.37 1826.97 1537.76 Q1826.97 1534.15 1824.63 1532.04 Q1822.29 1529.94 1818.29 1529.94 Q1816.41 1529.94 1814.54 1530.35 Q1812.69 1530.77 1810.74 1531.65 L1810.74 1514.29 Z" fill="#000000" fill-rule="evenodd" fill-opacity="1" /><path clip-path="url(#clip990)" d="M2243.73 1544.91 L2251.37 1544.91 L2251.37 1518.55 L2243.06 1520.21 L2243.06 1515.95 L2251.32 1514.29 L2256 1514.29 L2256 1544.91 L2263.64 1544.91 L2263.64 1548.85 L2243.73 1548.85 L2243.73 1544.91 Z" fill="#000000" fill-rule="evenodd" fill-opacity="1" /><path clip-path="url(#clip990)" d="M2273.08 1542.97 L2277.97 1542.97 L2277.97 1548.85 L2273.08 1548.85 L2273.08 1542.97 Z" fill="#000000" fill-rule="evenodd" fill-opacity="1" /><path clip-path="url(#clip990)" d="M2298.15 1517.37 Q2294.54 1517.37 2292.71 1520.93 Q2290.9 1524.47 2290.9 1531.6 Q2290.9 1538.71 2292.71 1542.27 Q2294.54 1545.82 2298.15 1545.82 Q2301.78 1545.82 2303.59 1542.27 Q2305.42 1538.71 2305.42 1531.6 Q2305.42 1524.47 2303.59 1520.93 Q2301.78 1517.37 2298.15 1517.37 M2298.15 1513.66 Q2303.96 1513.66 2307.02 1518.27 Q2310.09 1522.85 2310.09 1531.6 Q2310.09 1540.33 2307.02 1544.94 Q2303.96 1549.52 2298.15 1549.52 Q2292.34 1549.52 2289.26 1544.94 Q2286.21 1540.33 2286.21 1531.6 Q2286.21 1522.85 2289.26 1518.27 Q2292.34 1513.66 2298.15 1513.66 Z" fill="#000000" fill-rule="evenodd" fill-opacity="1" /><path clip-path="url(#clip990)" d="M2328.31 1517.37 Q2324.7 1517.37 2322.87 1520.93 Q2321.07 1524.47 2321.07 1531.6 Q2321.07 1538.71 2322.87 1542.27 Q2324.7 1545.82 2328.31 1545.82 Q2331.95 1545.82 2333.75 1542.27 Q2335.58 1538.71 2335.58 1531.6 Q2335.58 1524.47 2333.75 1520.93 Q2331.95 1517.37 2328.31 1517.37 M2328.31 1513.66 Q2334.12 1513.66 2337.18 1518.27 Q2340.26 1522.85 2340.26 1531.6 Q2340.26 1540.33 2337.18 1544.94 Q2334.12 1549.52 2328.31 1549.52 Q2322.5 1549.52 2319.42 1544.94 Q2316.37 1540.33 2316.37 1531.6 Q2316.37 1522.85 2319.42 1518.27 Q2322.5 1513.66 2328.31 1513.66 Z" fill="#000000" fill-rule="evenodd" fill-opacity="1" /><polyline clip-path="url(#clip992)" style="stroke:#000000; stroke-linecap:round; stroke-linejoin:round; stroke-width:2; stroke-opacity:0.1; fill:none" points="193.936,1445.73 2352.76,1445.73 "/>
<polyline clip-path="url(#clip992)" style="stroke:#000000; stroke-linecap:round; stroke-linejoin:round; stroke-width:2; stroke-opacity:0.1; fill:none" points="193.936,1106.29 2352.76,1106.29 "/>
<polyline clip-path="url(#clip992)" style="stroke:#000000; stroke-linecap:round; stroke-linejoin:round; stroke-width:2; stroke-opacity:0.1; fill:none" points="193.936,766.845 2352.76,766.845 "/>
<polyline clip-path="url(#clip992)" style="stroke:#000000; stroke-linecap:round; stroke-linejoin:round; stroke-width:2; stroke-opacity:0.1; fill:none" points="193.936,427.405 2352.76,427.405 "/>
<polyline clip-path="url(#clip992)" style="stroke:#000000; stroke-linecap:round; stroke-linejoin:round; stroke-width:2; stroke-opacity:0.1; fill:none" points="193.936,87.965 2352.76,87.965 "/>
<polyline clip-path="url(#clip990)" style="stroke:#000000; stroke-linecap:round; stroke-linejoin:round; stroke-width:4; stroke-opacity:1; fill:none" points="193.936,1486.45 193.936,47.2441 "/>
<polyline clip-path="url(#clip990)" style="stroke:#000000; stroke-linecap:round; stroke-linejoin:round; stroke-width:4; stroke-opacity:1; fill:none" points="193.936,1445.73 212.834,1445.73 "/>
<polyline clip-path="url(#clip990)" style="stroke:#000000; stroke-linecap:round; stroke-linejoin:round; stroke-width:4; stroke-opacity:1; fill:none" points="193.936,1106.29 212.834,1106.29 "/>
<polyline clip-path="url(#clip990)" style="stroke:#000000; stroke-linecap:round; stroke-linejoin:round; stroke-width:4; stroke-opacity:1; fill:none" points="193.936,766.845 212.834,766.845 "/>
<polyline clip-path="url(#clip990)" style="stroke:#000000; stroke-linecap:round; stroke-linejoin:round; stroke-width:4; stroke-opacity:1; fill:none" points="193.936,427.405 212.834,427.405 "/>
<polyline clip-path="url(#clip990)" style="stroke:#000000; stroke-linecap:round; stroke-linejoin:round; stroke-width:4; stroke-opacity:1; fill:none" points="193.936,87.965 212.834,87.965 "/>
<path clip-path="url(#clip990)" d="M50.9921 1446.18 L80.6679 1446.18 L80.6679 1450.11 L50.9921 1450.11 L50.9921 1446.18 Z" fill="#000000" fill-rule="evenodd" fill-opacity="1" /><path clip-path="url(#clip990)" d="M91.5706 1459.07 L99.2095 1459.07 L99.2095 1432.7 L90.8993 1434.37 L90.8993 1430.11 L99.1632 1428.45 L103.839 1428.45 L103.839 1459.07 L111.478 1459.07 L111.478 1463.01 L91.5706 1463.01 L91.5706 1459.07 Z" fill="#000000" fill-rule="evenodd" fill-opacity="1" /><path clip-path="url(#clip990)" d="M120.922 1457.13 L125.807 1457.13 L125.807 1463.01 L120.922 1463.01 L120.922 1457.13 Z" fill="#000000" fill-rule="evenodd" fill-opacity="1" /><path clip-path="url(#clip990)" d="M145.992 1431.52 Q142.381 1431.52 140.552 1435.09 Q138.746 1438.63 138.746 1445.76 Q138.746 1452.87 140.552 1456.43 Q142.381 1459.97 145.992 1459.97 Q149.626 1459.97 151.431 1456.43 Q153.26 1452.87 153.26 1445.76 Q153.26 1438.63 151.431 1435.09 Q149.626 1431.52 145.992 1431.52 M145.992 1427.82 Q151.802 1427.82 154.857 1432.43 Q157.936 1437.01 157.936 1445.76 Q157.936 1454.49 154.857 1459.09 Q151.802 1463.68 145.992 1463.68 Q140.181 1463.68 137.103 1459.09 Q134.047 1454.49 134.047 1445.76 Q134.047 1437.01 137.103 1432.43 Q140.181 1427.82 145.992 1427.82 Z" fill="#000000" fill-rule="evenodd" fill-opacity="1" /><path clip-path="url(#clip990)" d="M51.9875 1106.74 L81.6633 1106.74 L81.6633 1110.67 L51.9875 1110.67 L51.9875 1106.74 Z" fill="#000000" fill-rule="evenodd" fill-opacity="1" /><path clip-path="url(#clip990)" d="M101.756 1092.08 Q98.1447 1092.08 96.316 1095.65 Q94.5104 1099.19 94.5104 1106.32 Q94.5104 1113.43 96.316 1116.99 Q98.1447 1120.53 101.756 1120.53 Q105.39 1120.53 107.196 1116.99 Q109.024 1113.43 109.024 1106.32 Q109.024 1099.19 107.196 1095.65 Q105.39 1092.08 101.756 1092.08 M101.756 1088.38 Q107.566 1088.38 110.621 1092.99 Q113.7 1097.57 113.7 1106.32 Q113.7 1115.05 110.621 1119.65 Q107.566 1124.24 101.756 1124.24 Q95.9456 1124.24 92.8669 1119.65 Q89.8114 1115.05 89.8114 1106.32 Q89.8114 1097.57 92.8669 1092.99 Q95.9456 1088.38 101.756 1088.38 Z" fill="#000000" fill-rule="evenodd" fill-opacity="1" /><path clip-path="url(#clip990)" d="M121.918 1117.69 L126.802 1117.69 L126.802 1123.57 L121.918 1123.57 L121.918 1117.69 Z" fill="#000000" fill-rule="evenodd" fill-opacity="1" /><path clip-path="url(#clip990)" d="M137.033 1089.01 L155.39 1089.01 L155.39 1092.94 L141.316 1092.94 L141.316 1101.41 Q142.334 1101.07 143.353 1100.9 Q144.371 1100.72 145.39 1100.72 Q151.177 1100.72 154.556 1103.89 Q157.936 1107.06 157.936 1112.48 Q157.936 1118.06 154.464 1121.16 Q150.992 1124.24 144.672 1124.24 Q142.496 1124.24 140.228 1123.87 Q137.982 1123.5 135.575 1122.76 L135.575 1118.06 Q137.658 1119.19 139.881 1119.75 Q142.103 1120.3 144.58 1120.3 Q148.584 1120.3 150.922 1118.2 Q153.26 1116.09 153.26 1112.48 Q153.26 1108.87 150.922 1106.76 Q148.584 1104.65 144.58 1104.65 Q142.705 1104.65 140.83 1105.07 Q138.978 1105.49 137.033 1106.37 L137.033 1089.01 Z" fill="#000000" fill-rule="evenodd" fill-opacity="1" /><path clip-path="url(#clip990)" d="M100.76 752.644 Q97.1493 752.644 95.3206 756.209 Q93.515 759.75 93.515 766.88 Q93.515 773.986 95.3206 777.551 Q97.1493 781.093 100.76 781.093 Q104.395 781.093 106.2 777.551 Q108.029 773.986 108.029 766.88 Q108.029 759.75 106.2 756.209 Q104.395 752.644 100.76 752.644 M100.76 748.94 Q106.571 748.94 109.626 753.547 Q112.705 758.13 112.705 766.88 Q112.705 775.607 109.626 780.213 Q106.571 784.797 100.76 784.797 Q94.9502 784.797 91.8715 780.213 Q88.816 775.607 88.816 766.88 Q88.816 758.13 91.8715 753.547 Q94.9502 748.94 100.76 748.94 Z" fill="#000000" fill-rule="evenodd" fill-opacity="1" /><path clip-path="url(#clip990)" d="M120.922 778.246 L125.807 778.246 L125.807 784.125 L120.922 784.125 L120.922 778.246 Z" fill="#000000" fill-rule="evenodd" fill-opacity="1" /><path clip-path="url(#clip990)" d="M145.992 752.644 Q142.381 752.644 140.552 756.209 Q138.746 759.75 138.746 766.88 Q138.746 773.986 140.552 777.551 Q142.381 781.093 145.992 781.093 Q149.626 781.093 151.431 777.551 Q153.26 773.986 153.26 766.88 Q153.26 759.75 151.431 756.209 Q149.626 752.644 145.992 752.644 M145.992 748.94 Q151.802 748.94 154.857 753.547 Q157.936 758.13 157.936 766.88 Q157.936 775.607 154.857 780.213 Q151.802 784.797 145.992 784.797 Q140.181 784.797 137.103 780.213 Q134.047 775.607 134.047 766.88 Q134.047 758.13 137.103 753.547 Q140.181 748.94 145.992 748.94 Z" fill="#000000" fill-rule="evenodd" fill-opacity="1" /><path clip-path="url(#clip990)" d="M101.756 413.204 Q98.1447 413.204 96.316 416.769 Q94.5104 420.31 94.5104 427.44 Q94.5104 434.546 96.316 438.111 Q98.1447 441.653 101.756 441.653 Q105.39 441.653 107.196 438.111 Q109.024 434.546 109.024 427.44 Q109.024 420.31 107.196 416.769 Q105.39 413.204 101.756 413.204 M101.756 409.5 Q107.566 409.5 110.621 414.107 Q113.7 418.69 113.7 427.44 Q113.7 436.167 110.621 440.773 Q107.566 445.356 101.756 445.356 Q95.9456 445.356 92.8669 440.773 Q89.8114 436.167 89.8114 427.44 Q89.8114 418.69 92.8669 414.107 Q95.9456 409.5 101.756 409.5 Z" fill="#000000" fill-rule="evenodd" fill-opacity="1" /><path clip-path="url(#clip990)" d="M121.918 438.805 L126.802 438.805 L126.802 444.685 L121.918 444.685 L121.918 438.805 Z" fill="#000000" fill-rule="evenodd" fill-opacity="1" /><path clip-path="url(#clip990)" d="M137.033 410.125 L155.39 410.125 L155.39 414.06 L141.316 414.06 L141.316 422.532 Q142.334 422.185 143.353 422.023 Q144.371 421.838 145.39 421.838 Q151.177 421.838 154.556 425.009 Q157.936 428.181 157.936 433.597 Q157.936 439.176 154.464 442.278 Q150.992 445.356 144.672 445.356 Q142.496 445.356 140.228 444.986 Q137.982 444.616 135.575 443.875 L135.575 439.176 Q137.658 440.31 139.881 440.866 Q142.103 441.421 144.58 441.421 Q148.584 441.421 150.922 439.315 Q153.26 437.208 153.26 433.597 Q153.26 429.986 150.922 427.88 Q148.584 425.773 144.58 425.773 Q142.705 425.773 140.83 426.19 Q138.978 426.606 137.033 427.486 L137.033 410.125 Z" fill="#000000" fill-rule="evenodd" fill-opacity="1" /><path clip-path="url(#clip990)" d="M91.5706 101.31 L99.2095 101.31 L99.2095 74.9442 L90.8993 76.6108 L90.8993 72.3516 L99.1632 70.685 L103.839 70.685 L103.839 101.31 L111.478 101.31 L111.478 105.245 L91.5706 105.245 L91.5706 101.31 Z" fill="#000000" fill-rule="evenodd" fill-opacity="1" /><path clip-path="url(#clip990)" d="M120.922 99.3654 L125.807 99.3654 L125.807 105.245 L120.922 105.245 L120.922 99.3654 Z" fill="#000000" fill-rule="evenodd" fill-opacity="1" /><path clip-path="url(#clip990)" d="M145.992 73.7636 Q142.381 73.7636 140.552 77.3284 Q138.746 80.8701 138.746 87.9997 Q138.746 95.1061 140.552 98.6709 Q142.381 102.213 145.992 102.213 Q149.626 102.213 151.431 98.6709 Q153.26 95.1061 153.26 87.9997 Q153.26 80.8701 151.431 77.3284 Q149.626 73.7636 145.992 73.7636 M145.992 70.06 Q151.802 70.06 154.857 74.6664 Q157.936 79.2497 157.936 87.9997 Q157.936 96.7265 154.857 101.333 Q151.802 105.916 145.992 105.916 Q140.181 105.916 137.103 101.333 Q134.047 96.7265 134.047 87.9997 Q134.047 79.2497 137.103 74.6664 Q140.181 70.06 145.992 70.06 Z" fill="#000000" fill-rule="evenodd" fill-opacity="1" /><circle clip-path="url(#clip992)" cx="255.035" cy="766.845" r="14.4" fill="#009af9" fill-rule="evenodd" fill-opacity="1" stroke="#000000" stroke-opacity="1" stroke-width="3.2"/>
<circle clip-path="url(#clip992)" cx="263.937" cy="729.574" r="14.4" fill="#009af9" fill-rule="evenodd" fill-opacity="1" stroke="#000000" stroke-opacity="1" stroke-width="3.2"/>
<circle clip-path="url(#clip992)" cx="269.861" cy="704.829" r="14.4" fill="#009af9" fill-rule="evenodd" fill-opacity="1" stroke="#000000" stroke-opacity="1" stroke-width="3.2"/>
<circle clip-path="url(#clip992)" cx="295.165" cy="600.459" r="14.4" fill="#009af9" fill-rule="evenodd" fill-opacity="1" stroke="#000000" stroke-opacity="1" stroke-width="3.2"/>
<circle clip-path="url(#clip992)" cx="378.311" cy="298.836" r="14.4" fill="#009af9" fill-rule="evenodd" fill-opacity="1" stroke="#000000" stroke-opacity="1" stroke-width="3.2"/>
<circle clip-path="url(#clip992)" cx="380.259" cy="292.958" r="14.4" fill="#009af9" fill-rule="evenodd" fill-opacity="1" stroke="#000000" stroke-opacity="1" stroke-width="3.2"/>
<circle clip-path="url(#clip992)" cx="387.593" cy="271.453" r="14.4" fill="#009af9" fill-rule="evenodd" fill-opacity="1" stroke="#000000" stroke-opacity="1" stroke-width="3.2"/>
<circle clip-path="url(#clip992)" cx="418.158" cy="193.214" r="14.4" fill="#009af9" fill-rule="evenodd" fill-opacity="1" stroke="#000000" stroke-opacity="1" stroke-width="3.2"/>
<circle clip-path="url(#clip992)" cx="422.153" cy="184.438" r="14.4" fill="#009af9" fill-rule="evenodd" fill-opacity="1" stroke="#000000" stroke-opacity="1" stroke-width="3.2"/>
<circle clip-path="url(#clip992)" cx="432.417" cy="163.53" r="14.4" fill="#009af9" fill-rule="evenodd" fill-opacity="1" stroke="#000000" stroke-opacity="1" stroke-width="3.2"/>
<circle clip-path="url(#clip992)" cx="440.552" cy="148.671" r="14.4" fill="#009af9" fill-rule="evenodd" fill-opacity="1" stroke="#000000" stroke-opacity="1" stroke-width="3.2"/>
<circle clip-path="url(#clip992)" cx="503.642" cy="88.4255" r="14.4" fill="#009af9" fill-rule="evenodd" fill-opacity="1" stroke="#000000" stroke-opacity="1" stroke-width="3.2"/>
<circle clip-path="url(#clip992)" cx="589.988" cy="169.752" r="14.4" fill="#009af9" fill-rule="evenodd" fill-opacity="1" stroke="#000000" stroke-opacity="1" stroke-width="3.2"/>
<circle clip-path="url(#clip992)" cx="609.894" cy="213.83" r="14.4" fill="#009af9" fill-rule="evenodd" fill-opacity="1" stroke="#000000" stroke-opacity="1" stroke-width="3.2"/>
<circle clip-path="url(#clip992)" cx="643.55" cy="306.895" r="14.4" fill="#009af9" fill-rule="evenodd" fill-opacity="1" stroke="#000000" stroke-opacity="1" stroke-width="3.2"/>
<circle clip-path="url(#clip992)" cx="666.015" cy="380.3" r="14.4" fill="#009af9" fill-rule="evenodd" fill-opacity="1" stroke="#000000" stroke-opacity="1" stroke-width="3.2"/>
<circle clip-path="url(#clip992)" cx="675.317" cy="412.949" r="14.4" fill="#009af9" fill-rule="evenodd" fill-opacity="1" stroke="#000000" stroke-opacity="1" stroke-width="3.2"/>
<circle clip-path="url(#clip992)" cx="695.364" cy="487.132" r="14.4" fill="#009af9" fill-rule="evenodd" fill-opacity="1" stroke="#000000" stroke-opacity="1" stroke-width="3.2"/>
<circle clip-path="url(#clip992)" cx="699.69" cy="503.742" r="14.4" fill="#009af9" fill-rule="evenodd" fill-opacity="1" stroke="#000000" stroke-opacity="1" stroke-width="3.2"/>
<circle clip-path="url(#clip992)" cx="742.942" cy="678.096" r="14.4" fill="#009af9" fill-rule="evenodd" fill-opacity="1" stroke="#000000" stroke-opacity="1" stroke-width="3.2"/>
<circle clip-path="url(#clip992)" cx="750.923" cy="711.333" r="14.4" fill="#009af9" fill-rule="evenodd" fill-opacity="1" stroke="#000000" stroke-opacity="1" stroke-width="3.2"/>
<circle clip-path="url(#clip992)" cx="756.692" cy="735.446" r="14.4" fill="#009af9" fill-rule="evenodd" fill-opacity="1" stroke="#000000" stroke-opacity="1" stroke-width="3.2"/>
<circle clip-path="url(#clip992)" cx="763.553" cy="764.175" r="14.4" fill="#009af9" fill-rule="evenodd" fill-opacity="1" stroke="#000000" stroke-opacity="1" stroke-width="3.2"/>
<circle clip-path="url(#clip992)" cx="774.691" cy="810.802" r="14.4" fill="#009af9" fill-rule="evenodd" fill-opacity="1" stroke="#000000" stroke-opacity="1" stroke-width="3.2"/>
<circle clip-path="url(#clip992)" cx="796.573" cy="901.588" r="14.4" fill="#009af9" fill-rule="evenodd" fill-opacity="1" stroke="#000000" stroke-opacity="1" stroke-width="3.2"/>
<circle clip-path="url(#clip992)" cx="807.683" cy="946.851" r="14.4" fill="#009af9" fill-rule="evenodd" fill-opacity="1" stroke="#000000" stroke-opacity="1" stroke-width="3.2"/>
<circle clip-path="url(#clip992)" cx="815.637" cy="978.746" r="14.4" fill="#009af9" fill-rule="evenodd" fill-opacity="1" stroke="#000000" stroke-opacity="1" stroke-width="3.2"/>
<circle clip-path="url(#clip992)" cx="816.986" cy="984.107" r="14.4" fill="#009af9" fill-rule="evenodd" fill-opacity="1" stroke="#000000" stroke-opacity="1" stroke-width="3.2"/>
<circle clip-path="url(#clip992)" cx="819.418" cy="993.733" r="14.4" fill="#009af9" fill-rule="evenodd" fill-opacity="1" stroke="#000000" stroke-opacity="1" stroke-width="3.2"/>
<circle clip-path="url(#clip992)" cx="855.911" cy="1130.86" r="14.4" fill="#009af9" fill-rule="evenodd" fill-opacity="1" stroke="#000000" stroke-opacity="1" stroke-width="3.2"/>
<circle clip-path="url(#clip992)" cx="901.078" cy="1274.46" r="14.4" fill="#009af9" fill-rule="evenodd" fill-opacity="1" stroke="#000000" stroke-opacity="1" stroke-width="3.2"/>
<circle clip-path="url(#clip992)" cx="901.67" cy="1276.1" r="14.4" fill="#009af9" fill-rule="evenodd" fill-opacity="1" stroke="#000000" stroke-opacity="1" stroke-width="3.2"/>
<circle clip-path="url(#clip992)" cx="920.743" cy="1325.29" r="14.4" fill="#009af9" fill-rule="evenodd" fill-opacity="1" stroke="#000000" stroke-opacity="1" stroke-width="3.2"/>
<circle clip-path="url(#clip992)" cx="951.975" cy="1388.88" r="14.4" fill="#009af9" fill-rule="evenodd" fill-opacity="1" stroke="#000000" stroke-opacity="1" stroke-width="3.2"/>
<circle clip-path="url(#clip992)" cx="968.788" cy="1413.7" r="14.4" fill="#009af9" fill-rule="evenodd" fill-opacity="1" stroke="#000000" stroke-opacity="1" stroke-width="3.2"/>
<circle clip-path="url(#clip992)" cx="981.458" cy="1427.82" r="14.4" fill="#009af9" fill-rule="evenodd" fill-opacity="1" stroke="#000000" stroke-opacity="1" stroke-width="3.2"/>
<circle clip-path="url(#clip992)" cx="1013.96" cy="1445.43" r="14.4" fill="#009af9" fill-rule="evenodd" fill-opacity="1" stroke="#000000" stroke-opacity="1" stroke-width="3.2"/>
<circle clip-path="url(#clip992)" cx="1014.4" cy="1445.48" r="14.4" fill="#009af9" fill-rule="evenodd" fill-opacity="1" stroke="#000000" stroke-opacity="1" stroke-width="3.2"/>
<circle clip-path="url(#clip992)" cx="1048.2" cy="1434.56" r="14.4" fill="#009af9" fill-rule="evenodd" fill-opacity="1" stroke="#000000" stroke-opacity="1" stroke-width="3.2"/>
<circle clip-path="url(#clip992)" cx="1088.61" cy="1383.66" r="14.4" fill="#009af9" fill-rule="evenodd" fill-opacity="1" stroke="#000000" stroke-opacity="1" stroke-width="3.2"/>
<circle clip-path="url(#clip992)" cx="1091.21" cy="1379.03" r="14.4" fill="#009af9" fill-rule="evenodd" fill-opacity="1" stroke="#000000" stroke-opacity="1" stroke-width="3.2"/>
<circle clip-path="url(#clip992)" cx="1091.43" cy="1378.64" r="14.4" fill="#009af9" fill-rule="evenodd" fill-opacity="1" stroke="#000000" stroke-opacity="1" stroke-width="3.2"/>
<circle clip-path="url(#clip992)" cx="1131.36" cy="1288.38" r="14.4" fill="#009af9" fill-rule="evenodd" fill-opacity="1" stroke="#000000" stroke-opacity="1" stroke-width="3.2"/>
<circle clip-path="url(#clip992)" cx="1142.72" cy="1256.68" r="14.4" fill="#009af9" fill-rule="evenodd" fill-opacity="1" stroke="#000000" stroke-opacity="1" stroke-width="3.2"/>
<circle clip-path="url(#clip992)" cx="1152.37" cy="1227.82" r="14.4" fill="#009af9" fill-rule="evenodd" fill-opacity="1" stroke="#000000" stroke-opacity="1" stroke-width="3.2"/>
<circle clip-path="url(#clip992)" cx="1171.67" cy="1165.35" r="14.4" fill="#009af9" fill-rule="evenodd" fill-opacity="1" stroke="#000000" stroke-opacity="1" stroke-width="3.2"/>
<circle clip-path="url(#clip992)" cx="1184.05" cy="1122.26" r="14.4" fill="#009af9" fill-rule="evenodd" fill-opacity="1" stroke="#000000" stroke-opacity="1" stroke-width="3.2"/>
<circle clip-path="url(#clip992)" cx="1200.76" cy="1060.84" r="14.4" fill="#009af9" fill-rule="evenodd" fill-opacity="1" stroke="#000000" stroke-opacity="1" stroke-width="3.2"/>
<circle clip-path="url(#clip992)" cx="1207.03" cy="1036.93" r="14.4" fill="#009af9" fill-rule="evenodd" fill-opacity="1" stroke="#000000" stroke-opacity="1" stroke-width="3.2"/>
<circle clip-path="url(#clip992)" cx="1251.76" cy="856.979" r="14.4" fill="#009af9" fill-rule="evenodd" fill-opacity="1" stroke="#000000" stroke-opacity="1" stroke-width="3.2"/>
<circle clip-path="url(#clip992)" cx="1286.13" cy="713.346" r="14.4" fill="#009af9" fill-rule="evenodd" fill-opacity="1" stroke="#000000" stroke-opacity="1" stroke-width="3.2"/>
<circle clip-path="url(#clip992)" cx="1314.55" cy="596.101" r="14.4" fill="#009af9" fill-rule="evenodd" fill-opacity="1" stroke="#000000" stroke-opacity="1" stroke-width="3.2"/>
<circle clip-path="url(#clip992)" cx="1315.45" cy="592.457" r="14.4" fill="#009af9" fill-rule="evenodd" fill-opacity="1" stroke="#000000" stroke-opacity="1" stroke-width="3.2"/>
<circle clip-path="url(#clip992)" cx="1328.99" cy="538.32" r="14.4" fill="#009af9" fill-rule="evenodd" fill-opacity="1" stroke="#000000" stroke-opacity="1" stroke-width="3.2"/>
<circle clip-path="url(#clip992)" cx="1366.98" cy="396.101" r="14.4" fill="#009af9" fill-rule="evenodd" fill-opacity="1" stroke="#000000" stroke-opacity="1" stroke-width="3.2"/>
<circle clip-path="url(#clip992)" cx="1438.8" cy="188.042" r="14.4" fill="#009af9" fill-rule="evenodd" fill-opacity="1" stroke="#000000" stroke-opacity="1" stroke-width="3.2"/>
<circle clip-path="url(#clip992)" cx="1439.38" cy="186.783" r="14.4" fill="#009af9" fill-rule="evenodd" fill-opacity="1" stroke="#000000" stroke-opacity="1" stroke-width="3.2"/>
<circle clip-path="url(#clip992)" cx="1444.04" cy="176.88" r="14.4" fill="#009af9" fill-rule="evenodd" fill-opacity="1" stroke="#000000" stroke-opacity="1" stroke-width="3.2"/>
<circle clip-path="url(#clip992)" cx="1476.73" cy="121.55" r="14.4" fill="#009af9" fill-rule="evenodd" fill-opacity="1" stroke="#000000" stroke-opacity="1" stroke-width="3.2"/>
<circle clip-path="url(#clip992)" cx="1546.66" cy="92.4965" r="14.4" fill="#009af9" fill-rule="evenodd" fill-opacity="1" stroke="#000000" stroke-opacity="1" stroke-width="3.2"/>
<circle clip-path="url(#clip992)" cx="1554.51" cy="97.0788" r="14.4" fill="#009af9" fill-rule="evenodd" fill-opacity="1" stroke="#000000" stroke-opacity="1" stroke-width="3.2"/>
<circle clip-path="url(#clip992)" cx="1591.7" cy="139.856" r="14.4" fill="#009af9" fill-rule="evenodd" fill-opacity="1" stroke="#000000" stroke-opacity="1" stroke-width="3.2"/>
<circle clip-path="url(#clip992)" cx="1592.24" cy="140.722" r="14.4" fill="#009af9" fill-rule="evenodd" fill-opacity="1" stroke="#000000" stroke-opacity="1" stroke-width="3.2"/>
<circle clip-path="url(#clip992)" cx="1630.33" cy="219.043" r="14.4" fill="#009af9" fill-rule="evenodd" fill-opacity="1" stroke="#000000" stroke-opacity="1" stroke-width="3.2"/>
<circle clip-path="url(#clip992)" cx="1645.57" cy="259.103" r="14.4" fill="#009af9" fill-rule="evenodd" fill-opacity="1" stroke="#000000" stroke-opacity="1" stroke-width="3.2"/>
<circle clip-path="url(#clip992)" cx="1647.19" cy="263.642" r="14.4" fill="#009af9" fill-rule="evenodd" fill-opacity="1" stroke="#000000" stroke-opacity="1" stroke-width="3.2"/>
<circle clip-path="url(#clip992)" cx="1656.69" cy="291.208" r="14.4" fill="#009af9" fill-rule="evenodd" fill-opacity="1" stroke="#000000" stroke-opacity="1" stroke-width="3.2"/>
<circle clip-path="url(#clip992)" cx="1677.97" cy="358.717" r="14.4" fill="#009af9" fill-rule="evenodd" fill-opacity="1" stroke="#000000" stroke-opacity="1" stroke-width="3.2"/>
<circle clip-path="url(#clip992)" cx="1678.63" cy="360.934" r="14.4" fill="#009af9" fill-rule="evenodd" fill-opacity="1" stroke="#000000" stroke-opacity="1" stroke-width="3.2"/>
<circle clip-path="url(#clip992)" cx="1704.84" cy="453.842" r="14.4" fill="#009af9" fill-rule="evenodd" fill-opacity="1" stroke="#000000" stroke-opacity="1" stroke-width="3.2"/>
<circle clip-path="url(#clip992)" cx="1733.96" cy="566.526" r="14.4" fill="#009af9" fill-rule="evenodd" fill-opacity="1" stroke="#000000" stroke-opacity="1" stroke-width="3.2"/>
<circle clip-path="url(#clip992)" cx="1768.92" cy="710.042" r="14.4" fill="#009af9" fill-rule="evenodd" fill-opacity="1" stroke="#000000" stroke-opacity="1" stroke-width="3.2"/>
<circle clip-path="url(#clip992)" cx="1806.54" cy="867.151" r="14.4" fill="#009af9" fill-rule="evenodd" fill-opacity="1" stroke="#000000" stroke-opacity="1" stroke-width="3.2"/>
<circle clip-path="url(#clip992)" cx="1850.12" cy="1041.96" r="14.4" fill="#009af9" fill-rule="evenodd" fill-opacity="1" stroke="#000000" stroke-opacity="1" stroke-width="3.2"/>
<circle clip-path="url(#clip992)" cx="1865.11" cy="1098.1" r="14.4" fill="#009af9" fill-rule="evenodd" fill-opacity="1" stroke="#000000" stroke-opacity="1" stroke-width="3.2"/>
<circle clip-path="url(#clip992)" cx="1873.53" cy="1128.42" r="14.4" fill="#009af9" fill-rule="evenodd" fill-opacity="1" stroke="#000000" stroke-opacity="1" stroke-width="3.2"/>
<circle clip-path="url(#clip992)" cx="1873.65" cy="1128.85" r="14.4" fill="#009af9" fill-rule="evenodd" fill-opacity="1" stroke="#000000" stroke-opacity="1" stroke-width="3.2"/>
<circle clip-path="url(#clip992)" cx="1885.36" cy="1169.34" r="14.4" fill="#009af9" fill-rule="evenodd" fill-opacity="1" stroke="#000000" stroke-opacity="1" stroke-width="3.2"/>
<circle clip-path="url(#clip992)" cx="1996.16" cy="1424.2" r="14.4" fill="#009af9" fill-rule="evenodd" fill-opacity="1" stroke="#000000" stroke-opacity="1" stroke-width="3.2"/>
<circle clip-path="url(#clip992)" cx="2060.98" cy="1438.35" r="14.4" fill="#009af9" fill-rule="evenodd" fill-opacity="1" stroke="#000000" stroke-opacity="1" stroke-width="3.2"/>
<circle clip-path="url(#clip992)" cx="2068.6" cy="1432.92" r="14.4" fill="#009af9" fill-rule="evenodd" fill-opacity="1" stroke="#000000" stroke-opacity="1" stroke-width="3.2"/>
<circle clip-path="url(#clip992)" cx="2072.71" cy="1429.38" r="14.4" fill="#009af9" fill-rule="evenodd" fill-opacity="1" stroke="#000000" stroke-opacity="1" stroke-width="3.2"/>
<circle clip-path="url(#clip992)" cx="2076.24" cy="1426" r="14.4" fill="#009af9" fill-rule="evenodd" fill-opacity="1" stroke="#000000" stroke-opacity="1" stroke-width="3.2"/>
<circle clip-path="url(#clip992)" cx="2087.83" cy="1412.72" r="14.4" fill="#009af9" fill-rule="evenodd" fill-opacity="1" stroke="#000000" stroke-opacity="1" stroke-width="3.2"/>
<circle clip-path="url(#clip992)" cx="2101.91" cy="1392.13" r="14.4" fill="#009af9" fill-rule="evenodd" fill-opacity="1" stroke="#000000" stroke-opacity="1" stroke-width="3.2"/>
<circle clip-path="url(#clip992)" cx="2121.48" cy="1355.72" r="14.4" fill="#009af9" fill-rule="evenodd" fill-opacity="1" stroke="#000000" stroke-opacity="1" stroke-width="3.2"/>
<circle clip-path="url(#clip992)" cx="2159.19" cy="1261.97" r="14.4" fill="#009af9" fill-rule="evenodd" fill-opacity="1" stroke="#000000" stroke-opacity="1" stroke-width="3.2"/>
<circle clip-path="url(#clip992)" cx="2165.24" cy="1244.29" r="14.4" fill="#009af9" fill-rule="evenodd" fill-opacity="1" stroke="#000000" stroke-opacity="1" stroke-width="3.2"/>
<circle clip-path="url(#clip992)" cx="2169.76" cy="1230.67" r="14.4" fill="#009af9" fill-rule="evenodd" fill-opacity="1" stroke="#000000" stroke-opacity="1" stroke-width="3.2"/>
<circle clip-path="url(#clip992)" cx="2176.93" cy="1208.28" r="14.4" fill="#009af9" fill-rule="evenodd" fill-opacity="1" stroke="#000000" stroke-opacity="1" stroke-width="3.2"/>
<circle clip-path="url(#clip992)" cx="2184.93" cy="1182.28" r="14.4" fill="#009af9" fill-rule="evenodd" fill-opacity="1" stroke="#000000" stroke-opacity="1" stroke-width="3.2"/>
<circle clip-path="url(#clip992)" cx="2189.37" cy="1167.44" r="14.4" fill="#009af9" fill-rule="evenodd" fill-opacity="1" stroke="#000000" stroke-opacity="1" stroke-width="3.2"/>
<circle clip-path="url(#clip992)" cx="2200.03" cy="1130.54" r="14.4" fill="#009af9" fill-rule="evenodd" fill-opacity="1" stroke="#000000" stroke-opacity="1" stroke-width="3.2"/>
<circle clip-path="url(#clip992)" cx="2206.67" cy="1106.77" r="14.4" fill="#009af9" fill-rule="evenodd" fill-opacity="1" stroke="#000000" stroke-opacity="1" stroke-width="3.2"/>
<circle clip-path="url(#clip992)" cx="2247.37" cy="950.061" r="14.4" fill="#009af9" fill-rule="evenodd" fill-opacity="1" stroke="#000000" stroke-opacity="1" stroke-width="3.2"/>
<circle clip-path="url(#clip992)" cx="2249.03" cy="943.35" r="14.4" fill="#009af9" fill-rule="evenodd" fill-opacity="1" stroke="#000000" stroke-opacity="1" stroke-width="3.2"/>
<circle clip-path="url(#clip992)" cx="2268.84" cy="862.103" r="14.4" fill="#009af9" fill-rule="evenodd" fill-opacity="1" stroke="#000000" stroke-opacity="1" stroke-width="3.2"/>
<circle clip-path="url(#clip992)" cx="2271.86" cy="849.58" r="14.4" fill="#009af9" fill-rule="evenodd" fill-opacity="1" stroke="#000000" stroke-opacity="1" stroke-width="3.2"/>
<circle clip-path="url(#clip992)" cx="2273.49" cy="842.772" r="14.4" fill="#009af9" fill-rule="evenodd" fill-opacity="1" stroke="#000000" stroke-opacity="1" stroke-width="3.2"/>
<circle clip-path="url(#clip992)" cx="2289.52" cy="775.777" r="14.4" fill="#009af9" fill-rule="evenodd" fill-opacity="1" stroke="#000000" stroke-opacity="1" stroke-width="3.2"/>
<circle clip-path="url(#clip992)" cx="2291.66" cy="766.845" r="14.4" fill="#009af9" fill-rule="evenodd" fill-opacity="1" stroke="#000000" stroke-opacity="1" stroke-width="3.2"/>
<polyline clip-path="url(#clip992)" style="stroke:#e26f46; stroke-linecap:round; stroke-linejoin:round; stroke-width:4; stroke-opacity:1; fill:none" points="255.035,766.845 258.35,752.961 261.664,739.082 264.979,725.215 268.294,711.365 283.62,647.728 298.945,585.154 314.27,524.204 329.596,465.422 337.259,437.009 344.921,409.334 352.584,382.457 360.247,356.439 367.91,331.339 375.572,307.212 383.235,284.113 390.898,262.092 400.108,237.122 409.318,213.862 418.527,192.387 427.737,172.768 436.947,155.066 446.157,139.339 455.367,125.638 464.577,114.007 472.364,105.816 480.151,99.151 487.938,94.027 495.725,90.4559 503.512,88.4459 511.299,88.0017 519.085,89.1243 526.872,91.8111 535.331,96.4949 543.79,103.004 552.249,111.322 560.707,121.424 569.166,133.284 577.625,146.87 586.084,162.144 594.542,179.066 602.341,196.084 610.139,214.425 617.937,234.044 625.735,254.896 633.533,276.933 641.332,300.104 649.13,324.356 656.928,349.632 665.289,377.801 673.649,407.006 682.01,437.168 690.37,468.207 707.091,532.584 723.812,599.452 762.558,760.008 801.304,920.953 818.52,990.186 835.737,1056.9 844.345,1089.08 852.953,1120.35 861.561,1150.62 870.17,1179.81 877.718,1204.45 885.267,1228.14 892.815,1250.83 900.364,1272.47 907.913,1293.01 915.461,1312.41 923.01,1330.63 930.558,1347.63 938.788,1364.72 947.018,1380.28 955.248,1394.25 963.478,1406.6 971.708,1417.31 979.938,1426.33 988.168,1433.66 996.398,1439.27 1004.68,1443.16 1012.96,1445.29 1021.24,1445.65 1029.51,1444.23 1037.79,1441.05 1046.07,1436.11 1054.35,1429.43 1062.63,1421.02 1071.78,1409.73 1080.94,1396.39 1090.09,1381.04 1099.24,1363.74 1108.4,1344.53 1117.55,1323.48 1126.7,1300.65 1135.86,1276.13 1144.57,1251.28 1153.28,1225.04 1161.98,1197.47 1170.69,1168.66 1179.4,1138.69 1188.11,1107.64 1196.82,1075.61 1205.53,1042.69 1223.64,971.797 1241.75,898.344 1259.86,823.251 1277.98,747.454 1293.22,683.798 1308.47,620.877 1323.71,559.246 1338.96,499.451 1348.27,464.078 1357.57,429.704 1366.88,396.442 1376.19,364.4 1385.49,333.685 1394.8,304.398 1404.11,276.635 1413.41,250.489 1421.94,228.029 1430.46,207.06 1438.99,187.639 1447.51,169.821 1456.04,153.655 1464.57,139.184 1473.09,126.451 1481.62,115.489 1489.49,106.965 1497.36,99.998 1505.24,94.6048 1513.11,90.7982 1520.99,88.5869 1528.86,87.9763 1536.73,88.9677 1544.61,91.559 1552.58,95.8085 1560.56,101.683 1568.54,109.168 1576.51,118.246 1584.49,128.894 1592.46,141.087 1600.44,154.796 1608.42,169.986 1617.36,188.726 1626.29,209.225 1635.23,231.419 1644.17,255.241 1653.11,280.62 1662.05,307.477 1670.99,335.732 1679.93,365.297 1688.03,393.145 1696.13,421.927 1704.23,451.57 1712.33,482 1728.53,544.917 1744.73,610.05 1781.83,764.012 1818.92,918.121 1836.1,987.271 1853.27,1053.95 1861.86,1086.13 1870.44,1117.41 1879.03,1147.7 1887.62,1176.93 1896.08,1204.62 1904.55,1231.11 1913.01,1256.34 1921.48,1280.23 1929.95,1302.72 1938.41,1323.75 1946.88,1343.27 1955.34,1361.2 1963.56,1377.07 1971.78,1391.37 1980,1404.06 1988.22,1415.11 1996.44,1424.5 2004.66,1432.19 2012.88,1438.17 2021.1,1442.43 2029.53,1444.99 2037.95,1445.72 2046.38,1444.61 2054.8,1441.67 2063.23,1436.91 2071.66,1430.33 2080.08,1421.97 2088.51,1411.83 2097.74,1398.73 2106.97,1383.57 2116.2,1366.41 2125.44,1347.31 2134.67,1326.33 2143.9,1303.53 2153.13,1278.99 2162.36,1252.79 2175.77,1211.95 2189.18,1168.06 2202.59,1121.42 2216,1072.36 2229.42,1021.2 2242.83,968.309 2256.24,914.037 2269.65,858.757 2275.15,835.872 2280.65,812.907 2286.15,789.89 2291.66,766.845 "/>
<path clip-path="url(#clip990)" d="M1572.55 250.738 L2280.8 250.738 L2280.8 95.2176 L1572.55 95.2176  Z" fill="#ffffff" fill-rule="evenodd" fill-opacity="1"/>
<polyline clip-path="url(#clip990)" style="stroke:#000000; stroke-linecap:round; stroke-linejoin:round; stroke-width:4; stroke-opacity:1; fill:none" points="1572.55,250.738 2280.8,250.738 2280.8,95.2176 1572.55,95.2176 1572.55,250.738 "/>
<circle clip-path="url(#clip990)" cx="1668.5" cy="147.058" r="23.04" fill="#009af9" fill-rule="evenodd" fill-opacity="1" stroke="#000000" stroke-opacity="1" stroke-width="5.12"/>
<path clip-path="url(#clip990)" d="M1786.7 130.912 L1786.7 135.472 Q1784.03 134.199 1781.67 133.574 Q1779.31 132.949 1777.11 132.949 Q1773.29 132.949 1771.21 134.43 Q1769.15 135.912 1769.15 138.643 Q1769.15 140.935 1770.51 142.115 Q1771.9 143.273 1775.75 143.99 L1778.57 144.569 Q1783.8 145.565 1786.28 148.088 Q1788.78 150.588 1788.78 154.801 Q1788.78 159.824 1785.4 162.416 Q1782.04 165.009 1775.54 165.009 Q1773.08 165.009 1770.31 164.453 Q1767.55 163.898 1764.59 162.81 L1764.59 157.995 Q1767.44 159.592 1770.17 160.402 Q1772.9 161.213 1775.54 161.213 Q1779.54 161.213 1781.72 159.639 Q1783.89 158.064 1783.89 155.148 Q1783.89 152.602 1782.32 151.166 Q1780.77 149.731 1777.2 149.014 L1774.36 148.458 Q1769.13 147.416 1766.79 145.194 Q1764.45 142.972 1764.45 139.014 Q1764.45 134.43 1767.67 131.791 Q1770.91 129.153 1776.58 129.153 Q1779.01 129.153 1781.53 129.592 Q1784.06 130.032 1786.7 130.912 Z" fill="#000000" fill-rule="evenodd" fill-opacity="1" /><path clip-path="url(#clip990)" d="M1805.93 141.398 Q1802.51 141.398 1800.51 144.083 Q1798.52 146.745 1798.52 151.398 Q1798.52 156.051 1800.49 158.736 Q1802.48 161.398 1805.93 161.398 Q1809.33 161.398 1811.32 158.713 Q1813.32 156.027 1813.32 151.398 Q1813.32 146.791 1811.32 144.106 Q1809.33 141.398 1805.93 141.398 M1805.93 137.787 Q1811.49 137.787 1814.66 141.398 Q1817.83 145.009 1817.83 151.398 Q1817.83 157.764 1814.66 161.398 Q1811.49 165.009 1805.93 165.009 Q1800.35 165.009 1797.18 161.398 Q1794.03 157.764 1794.03 151.398 Q1794.03 145.009 1797.18 141.398 Q1800.35 137.787 1805.93 137.787 Z" fill="#000000" fill-rule="evenodd" fill-opacity="1" /><path clip-path="url(#clip990)" d="M1824.89 128.319 L1829.15 128.319 L1829.15 164.338 L1824.89 164.338 L1824.89 128.319 Z" fill="#000000" fill-rule="evenodd" fill-opacity="1" /><path clip-path="url(#clip990)" d="M1837.62 154.106 L1837.62 138.412 L1841.88 138.412 L1841.88 153.944 Q1841.88 157.625 1843.32 159.476 Q1844.75 161.305 1847.62 161.305 Q1851.07 161.305 1853.06 159.106 Q1855.07 156.907 1855.07 153.111 L1855.07 138.412 L1859.33 138.412 L1859.33 164.338 L1855.07 164.338 L1855.07 160.356 Q1853.52 162.717 1851.46 163.875 Q1849.43 165.009 1846.72 165.009 Q1842.25 165.009 1839.94 162.231 Q1837.62 159.453 1837.62 154.106 M1848.34 137.787 L1848.34 137.787 Z" fill="#000000" fill-rule="evenodd" fill-opacity="1" /><path clip-path="url(#clip990)" d="M1886.76 139.407 L1886.76 143.389 Q1884.96 142.393 1883.13 141.907 Q1881.32 141.398 1879.47 141.398 Q1875.33 141.398 1873.04 144.037 Q1870.75 146.652 1870.75 151.398 Q1870.75 156.143 1873.04 158.782 Q1875.33 161.398 1879.47 161.398 Q1881.32 161.398 1883.13 160.912 Q1884.96 160.402 1886.76 159.407 L1886.76 163.342 Q1884.98 164.176 1883.06 164.592 Q1881.16 165.009 1879.01 165.009 Q1873.15 165.009 1869.7 161.328 Q1866.25 157.648 1866.25 151.398 Q1866.25 145.055 1869.73 141.421 Q1873.22 137.787 1879.29 137.787 Q1881.25 137.787 1883.13 138.203 Q1885 138.597 1886.76 139.407 Z" fill="#000000" fill-rule="evenodd" fill-opacity="1" /><path clip-path="url(#clip990)" d="M1894.17 138.412 L1898.43 138.412 L1898.43 164.338 L1894.17 164.338 L1894.17 138.412 M1894.17 128.319 L1898.43 128.319 L1898.43 133.713 L1894.17 133.713 L1894.17 128.319 Z" fill="#000000" fill-rule="evenodd" fill-opacity="1" /><path clip-path="url(#clip990)" d="M1917.39 141.398 Q1913.96 141.398 1911.97 144.083 Q1909.98 146.745 1909.98 151.398 Q1909.98 156.051 1911.95 158.736 Q1913.94 161.398 1917.39 161.398 Q1920.79 161.398 1922.78 158.713 Q1924.77 156.027 1924.77 151.398 Q1924.77 146.791 1922.78 144.106 Q1920.79 141.398 1917.39 141.398 M1917.39 137.787 Q1922.94 137.787 1926.12 141.398 Q1929.29 145.009 1929.29 151.398 Q1929.29 157.764 1926.12 161.398 Q1922.94 165.009 1917.39 165.009 Q1911.81 165.009 1908.64 161.398 Q1905.49 157.764 1905.49 151.398 Q1905.49 145.009 1908.64 141.398 Q1911.81 137.787 1917.39 137.787 M1920.61 126.421 L1925.21 126.421 L1917.67 135.125 L1914.13 135.125 L1920.61 126.421 Z" fill="#000000" fill-rule="evenodd" fill-opacity="1" /><path clip-path="url(#clip990)" d="M1957.9 148.689 L1957.9 164.338 L1953.64 164.338 L1953.64 148.828 Q1953.64 145.148 1952.2 143.319 Q1950.77 141.49 1947.9 141.49 Q1944.45 141.49 1942.46 143.69 Q1940.47 145.889 1940.47 149.685 L1940.47 164.338 L1936.19 164.338 L1936.19 138.412 L1940.47 138.412 L1940.47 142.44 Q1942 140.102 1944.06 138.944 Q1946.14 137.787 1948.85 137.787 Q1953.31 137.787 1955.61 140.565 Q1957.9 143.319 1957.9 148.689 Z" fill="#000000" fill-rule="evenodd" fill-opacity="1" /><path clip-path="url(#clip990)" d="M1993.2 134.384 L1986.86 151.583 L1999.56 151.583 L1993.2 134.384 M1990.56 129.778 L1995.86 129.778 L2009.03 164.338 L2004.17 164.338 L2001.02 155.472 L1985.44 155.472 L1982.3 164.338 L1977.37 164.338 L1990.56 129.778 Z" fill="#000000" fill-rule="evenodd" fill-opacity="1" /><path clip-path="url(#clip990)" d="M2018.01 160.449 L2018.01 174.199 L2013.73 174.199 L2013.73 138.412 L2018.01 138.412 L2018.01 142.347 Q2019.36 140.032 2021.39 138.921 Q2023.45 137.787 2026.3 137.787 Q2031.02 137.787 2033.96 141.537 Q2036.93 145.287 2036.93 151.398 Q2036.93 157.509 2033.96 161.259 Q2031.02 165.009 2026.3 165.009 Q2023.45 165.009 2021.39 163.898 Q2019.36 162.763 2018.01 160.449 M2032.5 151.398 Q2032.5 146.699 2030.56 144.037 Q2028.64 141.352 2025.26 141.352 Q2021.88 141.352 2019.93 144.037 Q2018.01 146.699 2018.01 151.398 Q2018.01 156.097 2019.93 158.782 Q2021.88 161.444 2025.26 161.444 Q2028.64 161.444 2030.56 158.782 Q2032.5 156.097 2032.5 151.398 Z" fill="#000000" fill-rule="evenodd" fill-opacity="1" /><path clip-path="url(#clip990)" d="M2059.01 142.393 Q2058.29 141.977 2057.43 141.791 Q2056.6 141.583 2055.58 141.583 Q2051.97 141.583 2050.03 143.944 Q2048.11 146.282 2048.11 150.68 L2048.11 164.338 L2043.82 164.338 L2043.82 138.412 L2048.11 138.412 L2048.11 142.44 Q2049.45 140.078 2051.6 138.944 Q2053.75 137.787 2056.83 137.787 Q2057.27 137.787 2057.8 137.856 Q2058.34 137.903 2058.99 138.018 L2059.01 142.393 Z" fill="#000000" fill-rule="evenodd" fill-opacity="1" /><path clip-path="url(#clip990)" d="M2072.48 141.398 Q2069.05 141.398 2067.06 144.083 Q2065.07 146.745 2065.07 151.398 Q2065.07 156.051 2067.04 158.736 Q2069.03 161.398 2072.48 161.398 Q2075.88 161.398 2077.87 158.713 Q2079.86 156.027 2079.86 151.398 Q2079.86 146.791 2077.87 144.106 Q2075.88 141.398 2072.48 141.398 M2072.48 137.787 Q2078.04 137.787 2081.21 141.398 Q2084.38 145.009 2084.38 151.398 Q2084.38 157.764 2081.21 161.398 Q2078.04 165.009 2072.48 165.009 Q2066.9 165.009 2063.73 161.398 Q2060.58 157.764 2060.58 151.398 Q2060.58 145.009 2063.73 141.398 Q2066.9 137.787 2072.48 137.787 Z" fill="#000000" fill-rule="evenodd" fill-opacity="1" /><path clip-path="url(#clip990)" d="M2111.53 138.412 L2102.16 151.027 L2112.02 164.338 L2106.99 164.338 L2099.45 154.152 L2091.9 164.338 L2086.88 164.338 L2096.95 150.773 L2087.74 138.412 L2092.76 138.412 L2099.63 147.648 L2106.51 138.412 L2111.53 138.412 Z" fill="#000000" fill-rule="evenodd" fill-opacity="1" /><path clip-path="url(#clip990)" d="M2118.04 138.412 L2122.3 138.412 L2122.3 164.338 L2118.04 164.338 L2118.04 138.412 M2118.04 128.319 L2122.3 128.319 L2122.3 133.713 L2118.04 133.713 L2118.04 128.319 Z" fill="#000000" fill-rule="evenodd" fill-opacity="1" /><path clip-path="url(#clip990)" d="M2151.39 143.389 Q2152.99 140.518 2155.21 139.153 Q2157.43 137.787 2160.44 137.787 Q2164.49 137.787 2166.69 140.634 Q2168.89 143.458 2168.89 148.689 L2168.89 164.338 L2164.61 164.338 L2164.61 148.828 Q2164.61 145.102 2163.29 143.296 Q2161.97 141.49 2159.26 141.49 Q2155.95 141.49 2154.03 143.69 Q2152.11 145.889 2152.11 149.685 L2152.11 164.338 L2147.83 164.338 L2147.83 148.828 Q2147.83 145.078 2146.51 143.296 Q2145.19 141.49 2142.43 141.49 Q2139.17 141.49 2137.25 143.713 Q2135.33 145.912 2135.33 149.685 L2135.33 164.338 L2131.05 164.338 L2131.05 138.412 L2135.33 138.412 L2135.33 142.44 Q2136.79 140.055 2138.82 138.921 Q2140.86 137.787 2143.66 137.787 Q2146.48 137.787 2148.45 139.222 Q2150.44 140.657 2151.39 143.389 Z" fill="#000000" fill-rule="evenodd" fill-opacity="1" /><path clip-path="url(#clip990)" d="M2189.17 151.305 Q2184.01 151.305 2182.02 152.486 Q2180.03 153.666 2180.03 156.514 Q2180.03 158.782 2181.51 160.125 Q2183.01 161.444 2185.58 161.444 Q2189.12 161.444 2191.25 158.944 Q2193.41 156.421 2193.41 152.254 L2193.41 151.305 L2189.17 151.305 M2197.67 149.546 L2197.67 164.338 L2193.41 164.338 L2193.41 160.402 Q2191.95 162.763 2189.77 163.898 Q2187.6 165.009 2184.45 165.009 Q2180.47 165.009 2178.11 162.787 Q2175.77 160.541 2175.77 156.791 Q2175.77 152.416 2178.68 150.194 Q2181.62 147.972 2187.43 147.972 L2193.41 147.972 L2193.41 147.555 Q2193.41 144.615 2191.46 143.018 Q2189.54 141.398 2186.04 141.398 Q2183.82 141.398 2181.72 141.93 Q2179.61 142.463 2177.67 143.527 L2177.67 139.592 Q2180 138.69 2182.2 138.25 Q2184.4 137.787 2186.48 137.787 Q2192.11 137.787 2194.89 140.703 Q2197.67 143.62 2197.67 149.546 Z" fill="#000000" fill-rule="evenodd" fill-opacity="1" /><path clip-path="url(#clip990)" d="M2223.5 142.347 L2223.5 128.319 L2227.76 128.319 L2227.76 164.338 L2223.5 164.338 L2223.5 160.449 Q2222.16 162.763 2220.1 163.898 Q2218.06 165.009 2215.19 165.009 Q2210.49 165.009 2207.53 161.259 Q2204.59 157.509 2204.59 151.398 Q2204.59 145.287 2207.53 141.537 Q2210.49 137.787 2215.19 137.787 Q2218.06 137.787 2220.1 138.921 Q2222.16 140.032 2223.5 142.347 M2208.98 151.398 Q2208.98 156.097 2210.91 158.782 Q2212.85 161.444 2216.23 161.444 Q2219.61 161.444 2221.55 158.782 Q2223.5 156.097 2223.5 151.398 Q2223.5 146.699 2221.55 144.037 Q2219.61 141.352 2216.23 141.352 Q2212.85 141.352 2210.91 144.037 Q2208.98 146.699 2208.98 151.398 Z" fill="#000000" fill-rule="evenodd" fill-opacity="1" /><path clip-path="url(#clip990)" d="M2248.31 151.305 Q2243.15 151.305 2241.16 152.486 Q2239.17 153.666 2239.17 156.514 Q2239.17 158.782 2240.65 160.125 Q2242.16 161.444 2244.73 161.444 Q2248.27 161.444 2250.4 158.944 Q2252.55 156.421 2252.55 152.254 L2252.55 151.305 L2248.31 151.305 M2256.81 149.546 L2256.81 164.338 L2252.55 164.338 L2252.55 160.402 Q2251.09 162.763 2248.91 163.898 Q2246.74 165.009 2243.59 165.009 Q2239.61 165.009 2237.25 162.787 Q2234.91 160.541 2234.91 156.791 Q2234.91 152.416 2237.83 150.194 Q2240.77 147.972 2246.58 147.972 L2252.55 147.972 L2252.55 147.555 Q2252.55 144.615 2250.6 143.018 Q2248.68 141.398 2245.19 141.398 Q2242.97 141.398 2240.86 141.93 Q2238.75 142.463 2236.81 143.527 L2236.81 139.592 Q2239.15 138.69 2241.35 138.25 Q2243.54 137.787 2245.63 137.787 Q2251.25 137.787 2254.03 140.703 Q2256.81 143.62 2256.81 149.546 Z" fill="#000000" fill-rule="evenodd" fill-opacity="1" /><polyline clip-path="url(#clip990)" style="stroke:#e26f46; stroke-linecap:round; stroke-linejoin:round; stroke-width:4; stroke-opacity:1; fill:none" points="1596.54,198.898 1740.46,198.898 "/>
<path clip-path="url(#clip990)" d="M1786.7 182.752 L1786.7 187.312 Q1784.03 186.039 1781.67 185.414 Q1779.31 184.789 1777.11 184.789 Q1773.29 184.789 1771.21 186.27 Q1769.15 187.752 1769.15 190.483 Q1769.15 192.775 1770.51 193.955 Q1771.9 195.113 1775.75 195.83 L1778.57 196.409 Q1783.8 197.405 1786.28 199.928 Q1788.78 202.428 1788.78 206.641 Q1788.78 211.664 1785.4 214.256 Q1782.04 216.849 1775.54 216.849 Q1773.08 216.849 1770.31 216.293 Q1767.55 215.738 1764.59 214.65 L1764.59 209.835 Q1767.44 211.432 1770.17 212.242 Q1772.9 213.053 1775.54 213.053 Q1779.54 213.053 1781.72 211.479 Q1783.89 209.904 1783.89 206.988 Q1783.89 204.442 1782.32 203.006 Q1780.77 201.571 1777.2 200.854 L1774.36 200.298 Q1769.13 199.256 1766.79 197.034 Q1764.45 194.812 1764.45 190.854 Q1764.45 186.27 1767.67 183.631 Q1770.91 180.993 1776.58 180.993 Q1779.01 180.993 1781.53 181.432 Q1784.06 181.872 1786.7 182.752 Z" fill="#000000" fill-rule="evenodd" fill-opacity="1" /><path clip-path="url(#clip990)" d="M1805.93 193.238 Q1802.51 193.238 1800.51 195.923 Q1798.52 198.585 1798.52 203.238 Q1798.52 207.891 1800.49 210.576 Q1802.48 213.238 1805.93 213.238 Q1809.33 213.238 1811.32 210.553 Q1813.32 207.867 1813.32 203.238 Q1813.32 198.631 1811.32 195.946 Q1809.33 193.238 1805.93 193.238 M1805.93 189.627 Q1811.49 189.627 1814.66 193.238 Q1817.83 196.849 1817.83 203.238 Q1817.83 209.604 1814.66 213.238 Q1811.49 216.849 1805.93 216.849 Q1800.35 216.849 1797.18 213.238 Q1794.03 209.604 1794.03 203.238 Q1794.03 196.849 1797.18 193.238 Q1800.35 189.627 1805.93 189.627 Z" fill="#000000" fill-rule="evenodd" fill-opacity="1" /><path clip-path="url(#clip990)" d="M1824.89 180.159 L1829.15 180.159 L1829.15 216.178 L1824.89 216.178 L1824.89 180.159 Z" fill="#000000" fill-rule="evenodd" fill-opacity="1" /><path clip-path="url(#clip990)" d="M1837.62 205.946 L1837.62 190.252 L1841.88 190.252 L1841.88 205.784 Q1841.88 209.465 1843.32 211.316 Q1844.75 213.145 1847.62 213.145 Q1851.07 213.145 1853.06 210.946 Q1855.07 208.747 1855.07 204.951 L1855.07 190.252 L1859.33 190.252 L1859.33 216.178 L1855.07 216.178 L1855.07 212.196 Q1853.52 214.557 1851.46 215.715 Q1849.43 216.849 1846.72 216.849 Q1842.25 216.849 1839.94 214.071 Q1837.62 211.293 1837.62 205.946 M1848.34 189.627 L1848.34 189.627 Z" fill="#000000" fill-rule="evenodd" fill-opacity="1" /><path clip-path="url(#clip990)" d="M1886.76 191.247 L1886.76 195.229 Q1884.96 194.233 1883.13 193.747 Q1881.32 193.238 1879.47 193.238 Q1875.33 193.238 1873.04 195.877 Q1870.75 198.492 1870.75 203.238 Q1870.75 207.983 1873.04 210.622 Q1875.33 213.238 1879.47 213.238 Q1881.32 213.238 1883.13 212.752 Q1884.96 212.242 1886.76 211.247 L1886.76 215.182 Q1884.98 216.016 1883.06 216.432 Q1881.16 216.849 1879.01 216.849 Q1873.15 216.849 1869.7 213.168 Q1866.25 209.488 1866.25 203.238 Q1866.25 196.895 1869.73 193.261 Q1873.22 189.627 1879.29 189.627 Q1881.25 189.627 1883.13 190.043 Q1885 190.437 1886.76 191.247 Z" fill="#000000" fill-rule="evenodd" fill-opacity="1" /><path clip-path="url(#clip990)" d="M1894.17 190.252 L1898.43 190.252 L1898.43 216.178 L1894.17 216.178 L1894.17 190.252 M1894.17 180.159 L1898.43 180.159 L1898.43 185.553 L1894.17 185.553 L1894.17 180.159 Z" fill="#000000" fill-rule="evenodd" fill-opacity="1" /><path clip-path="url(#clip990)" d="M1917.39 193.238 Q1913.96 193.238 1911.97 195.923 Q1909.98 198.585 1909.98 203.238 Q1909.98 207.891 1911.95 210.576 Q1913.94 213.238 1917.39 213.238 Q1920.79 213.238 1922.78 210.553 Q1924.77 207.867 1924.77 203.238 Q1924.77 198.631 1922.78 195.946 Q1920.79 193.238 1917.39 193.238 M1917.39 189.627 Q1922.94 189.627 1926.12 193.238 Q1929.29 196.849 1929.29 203.238 Q1929.29 209.604 1926.12 213.238 Q1922.94 216.849 1917.39 216.849 Q1911.81 216.849 1908.64 213.238 Q1905.49 209.604 1905.49 203.238 Q1905.49 196.849 1908.64 193.238 Q1911.81 189.627 1917.39 189.627 M1920.61 178.261 L1925.21 178.261 L1917.67 186.965 L1914.13 186.965 L1920.61 178.261 Z" fill="#000000" fill-rule="evenodd" fill-opacity="1" /><path clip-path="url(#clip990)" d="M1957.9 200.529 L1957.9 216.178 L1953.64 216.178 L1953.64 200.668 Q1953.64 196.988 1952.2 195.159 Q1950.77 193.33 1947.9 193.33 Q1944.45 193.33 1942.46 195.53 Q1940.47 197.729 1940.47 201.525 L1940.47 216.178 L1936.19 216.178 L1936.19 190.252 L1940.47 190.252 L1940.47 194.28 Q1942 191.942 1944.06 190.784 Q1946.14 189.627 1948.85 189.627 Q1953.31 189.627 1955.61 192.405 Q1957.9 195.159 1957.9 200.529 Z" fill="#000000" fill-rule="evenodd" fill-opacity="1" /><path clip-path="url(#clip990)" d="M1981.65 181.618 L2003.5 181.618 L2003.5 185.553 L1986.32 185.553 L1986.32 195.784 L2002.78 195.784 L2002.78 199.719 L1986.32 199.719 L1986.32 212.242 L2003.92 212.242 L2003.92 216.178 L1981.65 216.178 L1981.65 181.618 Z" fill="#000000" fill-rule="evenodd" fill-opacity="1" /><path clip-path="url(#clip990)" d="M2032.97 190.252 L2023.59 202.867 L2033.45 216.178 L2028.43 216.178 L2020.88 205.992 L2013.34 216.178 L2008.31 216.178 L2018.38 202.613 L2009.17 190.252 L2014.19 190.252 L2021.07 199.488 L2027.94 190.252 L2032.97 190.252 Z" fill="#000000" fill-rule="evenodd" fill-opacity="1" /><path clip-path="url(#clip990)" d="M2051.25 203.145 Q2046.09 203.145 2044.1 204.326 Q2042.11 205.506 2042.11 208.354 Q2042.11 210.622 2043.59 211.965 Q2045.1 213.284 2047.67 213.284 Q2051.21 213.284 2053.34 210.784 Q2055.49 208.261 2055.49 204.094 L2055.49 203.145 L2051.25 203.145 M2059.75 201.386 L2059.75 216.178 L2055.49 216.178 L2055.49 212.242 Q2054.03 214.603 2051.86 215.738 Q2049.68 216.849 2046.53 216.849 Q2042.55 216.849 2040.19 214.627 Q2037.85 212.381 2037.85 208.631 Q2037.85 204.256 2040.77 202.034 Q2043.71 199.812 2049.52 199.812 L2055.49 199.812 L2055.49 199.395 Q2055.49 196.455 2053.55 194.858 Q2051.62 193.238 2048.13 193.238 Q2045.91 193.238 2043.8 193.77 Q2041.69 194.303 2039.75 195.367 L2039.75 191.432 Q2042.09 190.53 2044.29 190.09 Q2046.49 189.627 2048.57 189.627 Q2054.19 189.627 2056.97 192.543 Q2059.75 195.46 2059.75 201.386 Z" fill="#000000" fill-rule="evenodd" fill-opacity="1" /><path clip-path="url(#clip990)" d="M2087.18 191.247 L2087.18 195.229 Q2085.37 194.233 2083.55 193.747 Q2081.74 193.238 2079.89 193.238 Q2075.74 193.238 2073.45 195.877 Q2071.16 198.492 2071.16 203.238 Q2071.16 207.983 2073.45 210.622 Q2075.74 213.238 2079.89 213.238 Q2081.74 213.238 2083.55 212.752 Q2085.37 212.242 2087.18 211.247 L2087.18 215.182 Q2085.4 216.016 2083.48 216.432 Q2081.58 216.849 2079.43 216.849 Q2073.57 216.849 2070.12 213.168 Q2066.67 209.488 2066.67 203.238 Q2066.67 196.895 2070.14 193.261 Q2073.64 189.627 2079.7 189.627 Q2081.67 189.627 2083.55 190.043 Q2085.42 190.437 2087.18 191.247 Z" fill="#000000" fill-rule="evenodd" fill-opacity="1" /><path clip-path="url(#clip990)" d="M2098.8 182.891 L2098.8 190.252 L2107.57 190.252 L2107.57 193.562 L2098.8 193.562 L2098.8 207.636 Q2098.8 210.807 2099.66 211.71 Q2100.54 212.613 2103.2 212.613 L2107.57 212.613 L2107.57 216.178 L2103.2 216.178 Q2098.27 216.178 2096.39 214.349 Q2094.52 212.497 2094.52 207.636 L2094.52 193.562 L2091.39 193.562 L2091.39 190.252 L2094.52 190.252 L2094.52 182.891 L2098.8 182.891 Z" fill="#000000" fill-rule="evenodd" fill-opacity="1" /><path clip-path="url(#clip990)" d="M2124.96 203.145 Q2119.8 203.145 2117.8 204.326 Q2115.81 205.506 2115.81 208.354 Q2115.81 210.622 2117.3 211.965 Q2118.8 213.284 2121.37 213.284 Q2124.91 213.284 2127.04 210.784 Q2129.19 208.261 2129.19 204.094 L2129.19 203.145 L2124.96 203.145 M2133.45 201.386 L2133.45 216.178 L2129.19 216.178 L2129.19 212.242 Q2127.73 214.603 2125.56 215.738 Q2123.38 216.849 2120.24 216.849 Q2116.25 216.849 2113.89 214.627 Q2111.55 212.381 2111.55 208.631 Q2111.55 204.256 2114.47 202.034 Q2117.41 199.812 2123.22 199.812 L2129.19 199.812 L2129.19 199.395 Q2129.19 196.455 2127.25 194.858 Q2125.33 193.238 2121.83 193.238 Q2119.61 193.238 2117.5 193.77 Q2115.4 194.303 2113.45 195.367 L2113.45 191.432 Q2115.79 190.53 2117.99 190.09 Q2120.19 189.627 2122.27 189.627 Q2127.9 189.627 2130.67 192.543 Q2133.45 195.46 2133.45 201.386 Z" fill="#000000" fill-rule="evenodd" fill-opacity="1" /></svg>
